<svg width="301" height="286" viewBox="0 0 301 286" fill="none" xmlns="http://www.w3.org/2000/svg">
<path fill-rule="evenodd" clip-rule="evenodd" d="M75.8334 231.094C77.0192 232.359 78.2057 233.625 79.0671 235.169C77.36 233.504 75.8381 231.66 74.528 229.668C74.9519 230.153 75.3926 230.623 75.8334 231.094ZM79.0942 235.207L79.5001 236.02C75.5936 232.076 72.1703 227.681 69.3021 222.928C65.2965 216.157 62.31 208.832 60.4387 201.188C58.6204 193.7 57.3318 186.093 56.5824 178.422C55.4019 167.235 54.0794 156.071 51.708 145.054C49.8143 135.969 46.1453 127.35 40.9113 119.69C38.8242 116.652 36.6887 113.652 34.3199 110.707C34.775 110.642 34.957 110.874 35.1624 111.137C35.3189 111.338 35.4889 111.555 35.8036 111.672C35.5743 111.395 35.3726 111.097 35.1818 110.815L35.1817 110.815L35.1816 110.815L35.1815 110.815C34.7853 110.23 34.4362 109.714 33.9843 109.599C33.203 109.468 32.5555 108.922 32.2946 108.174C31.9322 106.408 30.7678 105.27 29.6085 104.136C29.0807 103.619 28.554 103.104 28.1045 102.531C27.5546 101.83 26.8473 101.278 26.1346 100.721C25.3712 100.125 24.6017 99.5239 24.013 98.7302C23.5442 98.0978 23.03 97.5041 22.5155 96.9101C21.4433 95.6722 20.3699 94.4328 19.7032 92.8391C19.262 91.7856 18.1057 90.936 17.029 90.1741C16.0331 89.4691 14.9787 88.3606 14.7056 87.2438C14.4216 86.0842 13.7219 85.2569 13.0241 84.432C12.5912 83.9202 12.159 83.4092 11.8273 82.8203C9.66963 79.0805 7.73792 75.2146 6.04258 71.2434C3.73826 65.5421 2.03966 59.6138 0.974705 53.556C-0.895768 43.5092 1.32371 34.1856 5.97534 25.3175C10.6363 16.4347 17.6655 10.4069 27.4935 7.81589L27.6878 7.76463C32.7983 6.41655 37.9078 5.06874 43.1198 4.17831C46.4933 3.57396 49.9307 3.41315 53.3447 3.69995C56.166 3.95808 58.8694 3.37531 61.5701 2.79311C61.7847 2.74684 61.9993 2.70057 62.214 2.65473C69.906 1.01198 77.6479 0.177664 85.5001 1.04785C93.4284 1.92766 100.812 4.56015 107.811 8.28199C117.117 13.2305 124.949 20.066 132.383 27.4522L132.822 27.888C143.371 38.3705 153.93 48.8636 166.297 57.2832C175.133 63.2994 184.383 68.521 194.671 71.7032C199.223 73.1112 203.896 73.4509 208.631 73.5614C211.628 73.6313 214.626 73.636 217.624 73.6407L217.625 73.6406C222.976 73.6489 228.327 73.6572 233.668 74.0369C239.655 74.4626 245.629 75.0688 251.416 76.7637C261.558 79.7334 271.157 83.9168 279.516 90.459C288.474 97.4699 295.913 105.772 299.912 116.684C303.718 127.07 304.449 137.475 299.627 147.766C296.989 153.393 292.853 157.911 288.131 161.863C283.869 165.43 279.436 168.781 275.003 172.133L275.002 172.134C270.419 175.599 265.836 179.064 261.439 182.769C260.429 183.621 259.412 184.466 258.395 185.311C253.518 189.366 248.641 193.42 244.428 198.206C238.208 205.27 234.649 213.587 232.816 222.737C232.038 226.606 231.375 230.495 230.711 234.384L230.711 234.388C230.32 236.677 229.929 238.967 229.515 241.253C228.175 248.651 226.403 255.928 223.177 262.781C217.51 274.822 207.834 281.592 195.009 284.19C187.536 285.65 179.887 285.973 172.321 285.148C169.572 284.873 166.857 284.418 164.15 283.965L164.15 283.965L164.149 283.965L164.149 283.965L164.148 283.965L164.147 283.965L164.147 283.965L164.146 283.965L164.146 283.964L164.145 283.964L164.066 283.951C163.792 283.905 163.518 283.859 163.244 283.814L163.074 283.785L162.729 283.728C159.818 283.248 156.962 282.48 154.204 281.434C153.06 280.999 151.87 280.691 150.676 280.383L150.675 280.383C149.572 280.098 148.464 279.811 147.384 279.423C139.23 276.519 131.281 273.074 123.588 269.112C118.981 266.72 114.569 264.007 110.184 261.265C106.677 259.071 103.295 256.668 99.9994 254.12C99.1955 253.499 98.3849 252.882 97.5736 252.265L97.5732 252.265L97.5728 252.265L97.5725 252.264L97.5721 252.264L97.5717 252.264L97.5714 252.263L97.571 252.263L97.5707 252.263L97.5703 252.263C95.639 250.794 93.7035 249.322 91.8434 247.771C91.1072 247.156 90.4928 246.409 89.8737 245.655C89.3012 244.958 88.7247 244.256 88.0442 243.651C85.184 241.188 82.5094 238.517 80.0423 235.661C79.8017 235.37 79.5342 235.1 79.0942 235.207ZM289.94 111.681L290.076 111.492C289.786 111.105 289.503 110.712 289.221 110.318C288.601 109.454 287.981 108.59 287.283 107.795C287.027 107.504 286.773 107.213 286.519 106.922C283.472 103.435 280.435 99.9589 276.16 97.7534C275.613 97.4714 275.124 97.0469 274.623 96.6123C274.011 96.0818 273.382 95.5364 272.611 95.2178C271.658 94.8244 270.827 94.2428 269.989 93.6557C269.138 93.0595 268.278 92.4577 267.274 92.0415C264.201 90.7673 261.138 89.3889 258.168 87.8673C256.849 87.1911 255.456 86.7693 254.066 86.3483C253.382 86.141 252.698 85.9339 252.024 85.6967C250.381 85.2148 248.712 84.8239 247.026 84.5259C243.935 83.7914 240.788 83.3189 237.617 83.1136C234.414 82.9295 231.187 82.8768 227.968 82.8683C226.714 82.8648 225.458 82.8824 224.203 82.9L224.203 82.9L224.202 82.9C222.278 82.927 220.354 82.954 218.433 82.9053C214.707 82.7841 210.977 82.9042 207.267 83.2649C206.299 83.3662 205.365 83.2668 204.429 83.1673L204.429 83.1673C203.579 83.0769 202.729 82.9865 201.853 83.0462C200.26 83.2311 198.652 83.2259 197.061 83.0308C194.209 82.5609 191.397 81.8785 188.648 80.9894C179.477 77.9486 171.087 73.358 163.123 67.9658C162.745 67.7094 162.362 67.4565 161.98 67.2035C159.884 65.8171 157.778 64.4241 156.185 62.3925C155.637 61.6103 154.937 60.9468 154.127 60.4415C152.544 59.5796 151.105 58.4758 149.863 57.1698C148.407 55.6729 146.85 54.2906 145.291 52.9074C144.02 51.7792 142.748 50.6504 141.53 49.4582C137.139 45.1624 132.789 40.8303 128.664 36.2863C127.514 35.0195 126.287 33.8324 125.06 32.6447C123.609 31.2404 122.157 29.8353 120.83 28.2969C119.71 26.9993 118.27 25.975 116.832 24.9526C116.257 24.5442 115.683 24.1362 115.131 23.7112C105.971 16.6685 95.9032 11.6849 84.2409 10.5849C83.5606 10.5209 83.0034 10.2338 82.4544 9.9508C81.8101 9.61878 81.177 9.29251 80.3692 9.3392C73.636 9.73051 66.899 10.0294 60.15 10.0445C55.5078 10.0551 51.0298 11.0871 46.5511 12.1193C44.1876 12.664 41.8239 13.2088 39.4357 13.6035C39.3559 13.6167 39.2806 13.6293 39.2095 13.6412L39.2082 13.6414C38.0274 13.8396 37.9641 13.8502 36.6055 13.1725C36.4993 13.1196 36.3329 13.1785 36.1729 13.2352C36.1131 13.2563 36.0542 13.2772 35.9997 13.2918C34.6749 13.6454 33.3399 13.9618 32.005 14.2781C29.2753 14.9251 26.5459 15.5719 23.9049 16.537C23.5025 16.6842 23.0972 16.8265 22.6915 16.969L22.6913 16.969C20.618 17.697 18.5369 18.4276 16.7898 19.829C9.51854 25.6681 6.22137 33.4 6.19601 42.5845C6.18208 47.7626 7.30584 52.7893 8.66109 57.7589C11.4127 67.9669 16.2971 77.4733 22.9927 85.6519C25.6864 88.9539 28.472 92.1775 31.2578 95.4014L31.2584 95.4021L31.259 95.4029L31.2597 95.4037L31.2603 95.4044L31.2609 95.4052L31.2615 95.4059L31.2622 95.4067L31.2628 95.4074L31.2634 95.4082C35.4291 100.229 39.5954 105.051 43.457 110.136C49.8097 118.371 54.4471 127.797 57.0959 137.858C60.2752 150.071 61.8342 162.549 63.2868 175.049C64.2835 183.619 65.5844 192.138 68.1075 200.413C71.6569 212.051 77.9098 222.059 86.3644 230.772C91.4585 236.042 96.9091 240.955 102.678 245.477C118.51 257.842 135.76 267.717 154.703 274.57C163.342 277.695 172.159 279.891 181.41 279.998C187.649 280.068 193.833 279.709 199.844 277.836C203.37 276.736 206.644 275.187 209.169 272.387C212.269 268.96 214.727 265.004 216.423 260.707C219.51 252.909 220.871 244.711 222.233 236.51C222.398 235.512 222.564 234.515 222.733 233.518C224.259 224.502 225.917 215.554 230.489 207.38C233.06 202.692 236.291 198.395 240.081 194.622C249.489 185.376 260.108 177.615 270.723 169.857L270.723 169.856L270.724 169.856L270.724 169.856L270.724 169.856L270.725 169.855L270.725 169.855L270.725 169.855L270.725 169.855L270.726 169.855L271.979 168.938C273.415 167.889 274.876 166.874 276.338 165.859C280.066 163.271 283.794 160.683 287.086 157.517C290.158 154.561 292.869 151.34 294.6 147.393C297.559 140.385 297.977 132.566 295.779 125.29C295.696 125.093 295.651 124.882 295.647 124.668C295.846 122.463 294.782 120.723 293.715 118.981C293.609 118.808 293.503 118.634 293.398 118.461C293.325 118.34 293.24 118.215 293.153 118.088C292.884 117.692 292.601 117.278 292.641 116.909C292.745 115.946 292.219 115.318 291.684 114.679C291.25 114.16 290.809 113.633 290.692 112.914C290.628 112.523 290.212 112.099 289.759 111.638C289.394 111.265 289.006 110.869 288.76 110.448L289.94 111.681ZM41.3749 109.972C45.0391 114.618 48.1317 119.688 50.5863 125.072C47.3744 119.225 43.6464 113.676 39.4467 108.493C35.9252 104.052 32.2078 99.7768 28.4905 95.5019L28.4898 95.5011C26.6792 93.4188 24.8685 91.3366 23.0805 89.2352C21.2962 87.2124 19.6927 85.0369 18.2885 82.7338C19.1321 82.9242 19.439 83.532 19.737 84.1224C19.8826 84.4107 20.026 84.6948 20.2289 84.9243C21.5344 86.4018 22.8072 87.909 24.0799 89.416C25.2807 90.838 26.4815 92.2599 27.7095 93.6565C32.3957 98.9867 37.0196 104.368 41.3749 109.972ZM291.512 104.953C295.193 110.428 298.088 116.393 300.111 122.673C298.782 116.135 295.824 110.041 291.512 104.953ZM166.184 60.4482C172.236 65.0554 178.943 68.7327 186.083 71.3587C179.248 68.09 172.664 64.3642 166.184 60.4482ZM99.866 7.12884C93.575 4.57025 87.1484 2.62276 80.235 3.04163C86.9146 3.64875 93.5013 5.02011 99.866 7.12884ZM70.1456 210.955C73.1523 216.569 76.159 222.183 80.3991 227.022C75.4113 221.92 71.5752 215.808 69.1487 209.098C69.4821 209.716 69.8138 210.335 70.1456 210.955ZM285.549 97.6563C285.506 97.8717 285.469 98.0255 285.442 98.1345C285.404 98.29 285.388 98.3545 285.412 98.3774C287.228 100.036 288.861 101.882 290.286 103.885C290.334 103.983 290.419 104.057 290.523 104.089C290.626 104.122 290.739 104.111 290.834 104.058C291.152 103.866 291.044 103.582 290.865 103.388C289.535 101.941 288.196 100.502 286.772 98.9707L286.771 98.9703L286.76 98.9588C286.364 98.5326 285.961 98.0991 285.549 97.6563ZM180.732 76.8484C183.235 78.3403 185.953 79.4365 188.792 80.0982L180.732 76.8484ZM29.7239 102.868C31.1422 105.377 32.2048 106.252 33.5405 105.775C32.1321 105.969 31.6704 105.183 31.1869 104.36C30.8351 103.761 30.4718 103.143 29.7239 102.868ZM25.351 99.566L25.1733 99.6658L21.156 94.8151L21.3105 94.6871L25.351 99.566Z" fill="#9EAD8D"/>
</svg>
