<svg width="260" height="260" viewBox="0 0 260 260" fill="none" xmlns="http://www.w3.org/2000/svg">
<mask id="mask0_34_318" style="mask-type:luminance" maskUnits="userSpaceOnUse" x="0" y="0" width="260" height="260">
<circle cx="130" cy="130" r="130" fill="white"/>
</mask>
<g mask="url(#mask0_34_318)">
<mask id="path-2-inside-1_34_318" fill="white">
<path fill-rule="evenodd" clip-rule="evenodd" d="M65.7183 -134.663L65.0117 -135.37L63.5965 -133.957L64.3031 -133.25L404.881 207.788L405.588 208.496L407.003 207.082L406.296 206.375L65.7183 -134.663ZM54.6876 -123.632L53.9809 -124.34L52.5658 -122.927L53.2724 -122.219L393.85 218.819L394.557 219.526L395.972 218.113L395.266 217.405L54.6876 -123.632ZM42.95 -113.309L43.6566 -112.601L384.235 228.436L384.941 229.144L383.526 230.557L382.819 229.85L42.2414 -111.188L41.5348 -111.896L42.95 -113.309ZM32.6258 -101.57L31.9192 -102.278L30.504 -100.865L31.2107 -100.157L371.789 240.88L372.495 241.588L373.91 240.175L373.204 239.467L32.6258 -101.57ZM20.8883 -91.2471L21.5949 -90.5396L362.173 250.498L362.88 251.206L361.464 252.619L360.758 251.911L20.1798 -89.1263L19.4731 -89.8339L20.8883 -91.2471ZM10.5642 -79.5086L9.85753 -80.2162L8.44236 -78.803L9.14899 -78.0954L349.727 262.942L350.434 263.65L351.849 262.237L351.142 261.529L10.5642 -79.5086ZM-1.17345 -69.1853L-0.466822 -68.4777L340.111 272.56L340.818 273.267L339.403 274.681L338.696 273.973L-1.88199 -67.0645L-2.58862 -67.7721L-1.17345 -69.1853ZM-11.4978 -57.4468L-12.2044 -58.1544L-13.6196 -56.7412L-12.913 -56.0336L327.665 285.004L328.372 285.712L329.787 284.298L329.08 283.591L-11.4978 -57.4468ZM-23.2352 -47.1238L-22.5286 -46.4162L318.049 294.621L318.756 295.329L317.341 296.742L316.634 296.035L-23.9437 -45.0029L-24.6504 -45.7105L-23.2352 -47.1238ZM-33.5592 -35.3853L-34.2658 -36.0929L-35.681 -34.6796L-34.9744 -33.972L305.604 307.066L306.31 307.773L307.725 306.36L307.019 305.652L-33.5592 -35.3853ZM-45.2969 -25.062L-44.5902 -24.3544L295.988 316.683L296.694 317.391L295.279 318.804L294.573 318.097L-46.0054 -22.9411L-46.712 -23.6487L-45.2969 -25.062ZM-55.6212 -13.3235L-56.3278 -14.0311L-57.7429 -12.6178L-57.0363 -11.9102L283.542 329.127L284.248 329.835L285.663 328.422L284.957 327.714L-55.6212 -13.3235ZM-67.3585 -3.00016L-66.6519 -2.29256L273.926 338.745L274.633 339.453L273.218 340.866L272.511 340.158L-68.0671 -0.879304L-68.7737 -1.5869L-67.3585 -3.00016ZM-77.6828 8.73834L-78.3894 8.03075L-79.8046 9.44401L-79.098 10.1516L261.48 351.189L262.187 351.897L263.602 350.484L262.895 349.776L-77.6828 8.73834ZM-89.4202 19.0614L-88.7136 19.769L251.864 360.807L252.571 361.514L251.156 362.927L250.449 362.22L-90.1288 21.1822L-90.8354 20.4746L-89.4202 19.0614ZM-99.7448 30.7999L-100.451 30.0923L-101.867 31.5056L-101.16 32.2131L239.418 373.251L240.125 373.958L241.54 372.545L240.833 371.837L-99.7448 30.7999ZM-111.482 41.1232L-110.775 41.8308L229.803 382.868L230.509 383.576L229.094 384.989L228.388 384.282L-112.19 43.244L-112.897 42.5365L-111.482 41.1232ZM-121.806 52.8617L-122.513 52.1541L-123.928 53.5674L-123.222 54.275L217.357 395.313L218.063 396.02L219.478 394.607L218.772 393.899L-121.806 52.8617Z"/>
</mask>
<path d="M65.0117 -135.37L66.4268 -136.784L65.0136 -138.199L63.5984 -136.786L65.0117 -135.37ZM65.7183 -134.663L67.1334 -136.076L65.7183 -134.663ZM63.5965 -133.957L62.1832 -135.372L60.7681 -133.959L62.1813 -132.544L63.5965 -133.957ZM64.3031 -133.25L65.7183 -134.663L65.7183 -134.663L64.3031 -133.25ZM404.881 207.788L403.466 209.201L404.881 207.788ZM405.588 208.496L404.173 209.909L405.586 211.324L407.001 209.911L405.588 208.496ZM407.003 207.082L408.416 208.497L409.831 207.084L408.418 205.669L407.003 207.082ZM406.296 206.375L404.881 207.788L406.296 206.375ZM53.9809 -124.34L55.3961 -125.753L53.9829 -127.168L52.5677 -125.755L53.9809 -124.34ZM54.6876 -123.632L56.1027 -125.046L56.1027 -125.046L54.6876 -123.632ZM52.5658 -122.927L51.1525 -124.342L49.7374 -122.929L51.1506 -121.513L52.5658 -122.927ZM53.2724 -122.219L51.8572 -120.806L51.8572 -120.806L53.2724 -122.219ZM393.85 218.819L395.266 217.405L393.85 218.819ZM394.557 219.526L393.142 220.939L394.555 222.355L395.97 220.941L394.557 219.526ZM395.972 218.113L397.385 219.528L398.801 218.115L397.387 216.7L395.972 218.113ZM395.266 217.405L396.681 215.992L395.266 217.405ZM43.6566 -112.601L42.2414 -111.188L42.2414 -111.188L43.6566 -112.601ZM42.95 -113.309L44.3651 -114.722L42.9519 -116.137L41.5367 -114.724L42.95 -113.309ZM384.235 228.436L385.65 227.023L384.235 228.436ZM384.941 229.144L386.355 230.559L387.77 229.146L386.356 227.731L384.941 229.144ZM383.526 230.557L382.111 231.97L383.524 233.386L384.939 231.972L383.526 230.557ZM382.819 229.85L384.235 228.436L382.819 229.85ZM42.2414 -111.188L43.6566 -112.601L43.6566 -112.601L42.2414 -111.188ZM41.5348 -111.896L40.1215 -113.311L38.7064 -111.898L40.1196 -110.482L41.5348 -111.896ZM31.9192 -102.278L33.3344 -103.691L31.9211 -105.106L30.5059 -103.693L31.9192 -102.278ZM32.6258 -101.57L34.041 -102.984L34.041 -102.984L32.6258 -101.57ZM30.504 -100.865L29.0908 -102.28L27.6756 -100.867L29.0889 -99.4515L30.504 -100.865ZM31.2107 -100.157L32.6258 -101.57L32.6258 -101.57L31.2107 -100.157ZM371.789 240.88L373.204 239.467L371.789 240.88ZM372.495 241.588L371.08 243.001L372.493 244.416L373.909 243.003L372.495 241.588ZM373.91 240.175L375.324 241.59L376.739 240.177L375.326 238.761L373.91 240.175ZM373.204 239.467L374.619 238.054L373.204 239.467ZM21.5949 -90.5396L23.0101 -91.9528L23.0101 -91.9528L21.5949 -90.5396ZM20.8883 -91.2471L22.3035 -92.6604L20.8902 -94.0756L19.475 -92.6623L20.8883 -91.2471ZM362.173 250.498L363.588 249.085L362.173 250.498ZM362.88 251.206L364.293 252.621L365.708 251.208L364.295 249.792L362.88 251.206ZM361.464 252.619L360.049 254.032L361.463 255.447L362.878 254.034L361.464 252.619ZM360.758 251.911L359.343 253.325L359.343 253.325L360.758 251.911ZM20.1798 -89.1263L21.5949 -90.5396L21.5949 -90.5396L20.1798 -89.1263ZM19.4731 -89.8339L18.0599 -91.249L16.6447 -89.8358L18.058 -88.4206L19.4731 -89.8339ZM9.85753 -80.2162L11.2727 -81.6295L9.85943 -83.0447L8.44427 -81.6314L9.85753 -80.2162ZM10.5642 -79.5086L11.9793 -80.9219L11.9793 -80.9219L10.5642 -79.5086ZM8.44236 -78.803L7.0291 -80.2181L5.61393 -78.8049L7.0272 -77.3897L8.44236 -78.803ZM9.14899 -78.0954L10.5642 -79.5086L10.5642 -79.5087L9.14899 -78.0954ZM349.727 262.942L348.312 264.355L348.312 264.356L349.727 262.942ZM350.434 263.65L349.018 265.063L350.432 266.478L351.847 265.065L350.434 263.65ZM351.849 262.237L353.262 263.652L354.677 262.238L353.264 260.823L351.849 262.237ZM351.142 261.529L349.727 262.942L349.727 262.942L351.142 261.529ZM-0.466822 -68.4777L0.948345 -69.891L0.948341 -69.891L-0.466822 -68.4777ZM-1.17345 -69.1853L0.241709 -70.5986L-1.17155 -72.0137L-2.58671 -70.6005L-1.17345 -69.1853ZM340.111 272.56L338.696 273.973L338.696 273.973L340.111 272.56ZM340.818 273.267L342.231 274.683L343.646 273.269L342.233 271.854L340.818 273.267ZM339.403 274.681L337.987 276.094L339.401 277.509L340.816 276.096L339.403 274.681ZM338.696 273.973L337.281 275.386L337.281 275.386L338.696 273.973ZM-1.88199 -67.0645L-0.466822 -68.4777L-0.466826 -68.4777L-1.88199 -67.0645ZM-2.58862 -67.7721L-4.00188 -69.1872L-5.41705 -67.774L-4.00378 -66.3588L-2.58862 -67.7721ZM-12.2044 -58.1544L-10.7893 -59.5677L-12.2025 -60.9828L-13.6177 -59.5696L-12.2044 -58.1544ZM-11.4978 -57.4468L-10.0826 -58.8601L-10.0826 -58.8601L-11.4978 -57.4468ZM-13.6196 -56.7412L-15.0329 -58.1563L-16.448 -56.7431L-15.0348 -55.3279L-13.6196 -56.7412ZM-12.913 -56.0336L-11.4978 -57.4468L-11.4978 -57.4468L-12.913 -56.0336ZM327.665 285.004L326.25 286.417L326.25 286.417L327.665 285.004ZM328.372 285.712L326.957 287.125L328.37 288.54L329.785 287.127L328.372 285.712ZM329.787 284.298L331.2 285.714L332.615 284.3L331.202 282.885L329.787 284.298ZM329.08 283.591L327.665 285.004L327.665 285.004L329.08 283.591ZM-22.5286 -46.4162L-21.1134 -47.8295L-21.1134 -47.8295L-22.5286 -46.4162ZM-23.2352 -47.1238L-21.82 -48.537L-23.2333 -49.9522L-24.6485 -48.5389L-23.2352 -47.1238ZM318.049 294.621L316.634 296.035L316.634 296.035L318.049 294.621ZM318.756 295.329L320.169 296.744L321.585 295.331L320.171 293.916L318.756 295.329ZM317.341 296.742L315.926 298.156L317.339 299.571L318.754 298.157L317.341 296.742ZM316.634 296.035L315.219 297.448L315.219 297.448L316.634 296.035ZM-23.9437 -45.0029L-22.5286 -46.4162L-22.5286 -46.4162L-23.9437 -45.0029ZM-24.6504 -45.7105L-26.0636 -47.1257L-27.4788 -45.7124L-26.0655 -44.2973L-24.6504 -45.7105ZM-34.2658 -36.0929L-32.8506 -37.5061L-34.2639 -38.9213L-35.6791 -37.508L-34.2658 -36.0929ZM-33.5592 -35.3853L-34.9744 -33.972L-34.9744 -33.972L-33.5592 -35.3853ZM-35.681 -34.6796L-37.0942 -36.0948L-38.5094 -34.6815L-37.0962 -33.2664L-35.681 -34.6796ZM-34.9744 -33.972L-36.3895 -32.5588L-36.3895 -32.5588L-34.9744 -33.972ZM305.604 307.066L304.188 308.479L304.188 308.479L305.604 307.066ZM306.31 307.773L304.895 309.186L306.308 310.602L307.724 309.188L306.31 307.773ZM307.725 306.36L309.139 307.775L310.554 306.362L309.141 304.947L307.725 306.36ZM307.019 305.652L305.604 307.066L305.604 307.066L307.019 305.652ZM-44.5902 -24.3544L-46.0054 -22.9411L-46.0054 -22.9411L-44.5902 -24.3544ZM-45.2969 -25.062L-43.8817 -26.4752L-45.295 -27.8904L-46.7101 -26.4771L-45.2969 -25.062ZM295.988 316.683L294.573 318.096L294.573 318.097L295.988 316.683ZM296.694 317.391L298.108 318.806L299.523 317.393L298.11 315.978L296.694 317.391ZM295.279 318.804L293.864 320.217L295.277 321.633L296.693 320.219L295.279 318.804ZM294.573 318.097L293.157 319.51L293.157 319.51L294.573 318.097ZM-46.0054 -22.9411L-47.4206 -21.5279L-47.4206 -21.5279L-46.0054 -22.9411ZM-46.712 -23.6487L-48.1253 -25.0639L-49.5404 -23.6506L-48.1272 -22.2355L-46.712 -23.6487ZM-56.3278 -14.0311L-54.9126 -15.4443L-56.3259 -16.8595L-57.741 -15.4462L-56.3278 -14.0311ZM-55.6212 -13.3235L-57.0363 -11.9102L-57.0363 -11.9102L-55.6212 -13.3235ZM-57.7429 -12.6178L-59.1562 -14.033L-60.5714 -12.6197L-59.1581 -11.2046L-57.7429 -12.6178ZM-57.0363 -11.9102L-58.4515 -10.497L-58.4515 -10.497L-57.0363 -11.9102ZM283.542 329.127L282.127 330.541L282.127 330.541L283.542 329.127ZM284.248 329.835L282.833 331.248L284.246 332.663L285.662 331.25L284.248 329.835ZM285.663 328.422L287.077 329.837L288.492 328.424L287.079 327.008L285.663 328.422ZM284.957 327.714L283.542 329.127L283.542 329.127L284.957 327.714ZM-66.6519 -2.29256L-68.0671 -0.879321L-68.0671 -0.879304L-66.6519 -2.29256ZM-67.3585 -3.00016L-65.9434 -4.41339L-67.3566 -5.82859L-68.7718 -4.41532L-67.3585 -3.00016ZM273.926 338.745L272.511 340.158L272.511 340.158L273.926 338.745ZM274.633 339.453L276.046 340.868L277.461 339.455L276.048 338.039L274.633 339.453ZM273.218 340.866L271.802 342.279L273.216 343.694L274.631 342.281L273.218 340.866ZM272.511 340.158L271.096 341.572L271.096 341.572L272.511 340.158ZM-68.0671 -0.879304L-69.4823 0.533939L-69.4823 0.533956L-68.0671 -0.879304ZM-68.7737 -1.5869L-70.187 -3.00206L-71.6021 -1.58882L-70.1889 -0.173654L-68.7737 -1.5869ZM-78.3894 8.03075L-76.9743 6.61751L-78.3875 5.20231L-79.8027 6.61558L-78.3894 8.03075ZM-77.6828 8.73834L-79.098 10.1516L-79.098 10.1516L-77.6828 8.73834ZM-79.8046 9.44401L-81.2179 8.02884L-82.633 9.44208L-81.2198 10.8572L-79.8046 9.44401ZM-79.098 10.1516L-80.5132 11.5648L-80.5132 11.5649L-79.098 10.1516ZM261.48 351.189L260.065 352.602L260.065 352.602L261.48 351.189ZM262.187 351.897L260.771 353.31L262.185 354.725L263.6 353.312L262.187 351.897ZM263.602 350.484L265.015 351.899L266.43 350.485L265.017 349.07L263.602 350.484ZM262.895 349.776L261.48 351.189L261.48 351.189L262.895 349.776ZM-88.7136 19.769L-90.1288 21.1822L-90.1288 21.1822L-88.7136 19.769ZM-89.4202 19.0614L-88.0051 17.6482L-89.4183 16.233L-90.8335 17.6462L-89.4202 19.0614ZM251.864 360.807L250.449 362.22L250.449 362.22L251.864 360.807ZM252.571 361.514L253.984 362.929L255.399 361.516L253.986 360.101L252.571 361.514ZM251.156 362.927L249.741 364.341L251.154 365.756L252.569 364.343L251.156 362.927ZM250.449 362.22L249.034 363.633L249.034 363.633L250.449 362.22ZM-90.1288 21.1822L-91.544 22.5955L-91.5439 22.5955L-90.1288 21.1822ZM-90.8354 20.4746L-92.2487 19.0595L-93.6638 20.4727L-92.2506 21.8879L-90.8354 20.4746ZM-100.451 30.0923L-99.0362 28.6791L-100.449 27.2639L-101.865 28.6771L-100.451 30.0923ZM-99.7448 30.7999L-101.16 32.2131L-101.16 32.2131L-99.7448 30.7999ZM-101.867 31.5056L-103.28 30.0904L-104.695 31.5036L-103.282 32.9188L-101.867 31.5056ZM-101.16 32.2131L-102.575 33.6264L-102.575 33.6264L-101.16 32.2131ZM239.418 373.251L238.003 374.664L238.003 374.664L239.418 373.251ZM240.125 373.958L238.71 375.372L240.123 376.787L241.538 375.374L240.125 373.958ZM241.54 372.545L242.953 373.96L244.368 372.547L242.955 371.132L241.54 372.545ZM240.833 371.837L239.418 373.251L239.418 373.251L240.833 371.837ZM-110.775 41.8308L-112.19 43.244L-112.19 43.244L-110.775 41.8308ZM-111.482 41.1232L-110.067 39.71L-111.48 38.2948L-112.895 39.708L-111.482 41.1232ZM229.803 382.868L228.388 384.282L228.388 384.282L229.803 382.868ZM230.509 383.576L231.923 384.991L233.338 383.578L231.925 382.163L230.509 383.576ZM229.094 384.989L227.679 386.403L229.092 387.818L230.507 386.404L229.094 384.989ZM228.388 384.282L226.972 385.695L226.972 385.695L228.388 384.282ZM-112.19 43.244L-113.606 44.6573L-113.606 44.6573L-112.19 43.244ZM-112.897 42.5365L-114.31 41.1213L-115.725 42.5345L-114.312 43.9497L-112.897 42.5365ZM-122.513 52.1541L-121.098 50.7409L-122.511 49.3257L-123.926 50.739L-122.513 52.1541ZM-121.806 52.8617L-120.391 51.4484L-120.391 51.4484L-121.806 52.8617ZM-123.928 53.5674L-125.341 52.1522L-126.757 53.5655L-125.343 54.9806L-123.928 53.5674ZM-123.222 54.275L-121.806 52.8617L-121.806 52.8617L-123.222 54.275ZM217.357 395.313L215.941 396.726L215.941 396.726L217.357 395.313ZM218.063 396.02L216.648 397.433L218.061 398.849L219.476 397.435L218.063 396.02ZM219.478 394.607L220.892 396.022L222.307 394.609L220.894 393.194L219.478 394.607ZM218.772 393.899L220.187 392.486L220.187 392.486L218.772 393.899ZM63.5965 -133.957L64.3031 -133.25L67.1334 -136.076L66.4268 -136.784L63.5965 -133.957ZM65.0097 -132.542L66.4249 -133.955L63.5984 -136.786L62.1832 -135.372L65.0097 -132.542ZM65.7183 -134.663L65.0116 -135.37L62.1813 -132.544L62.8879 -131.836L65.7183 -134.663ZM406.296 206.375L65.7183 -134.663L62.8879 -131.836L403.466 209.201L406.296 206.375ZM407.003 207.082L406.296 206.375L403.466 209.201L404.173 209.909L407.003 207.082ZM405.59 205.667L404.174 207.08L407.001 209.911L408.416 208.497L405.59 205.667ZM404.881 207.788L405.588 208.496L408.418 205.669L407.711 204.961L404.881 207.788ZM64.3031 -133.25L404.881 207.788L407.711 204.961L67.1334 -136.076L64.3031 -133.25ZM52.5658 -122.927L53.2724 -122.219L56.1027 -125.046L55.3961 -125.753L52.5658 -122.927ZM53.979 -121.511L55.3942 -122.925L52.5677 -125.755L51.1525 -124.342L53.979 -121.511ZM54.6876 -123.632L53.981 -124.34L51.1506 -121.513L51.8572 -120.806L54.6876 -123.632ZM395.266 217.405L54.6876 -123.632L51.8572 -120.806L392.435 220.232L395.266 217.405ZM395.972 218.113L395.266 217.405L392.435 220.232L393.142 220.939L395.972 218.113ZM394.559 216.698L393.144 218.111L395.97 220.941L397.385 219.528L394.559 216.698ZM393.85 218.819L394.557 219.526L397.387 216.7L396.681 215.992L393.85 218.819ZM53.2724 -122.219L393.85 218.819L396.681 215.992L56.1027 -125.046L53.2724 -122.219ZM45.0718 -114.015L44.3651 -114.722L41.5348 -111.896L42.2414 -111.188L45.0718 -114.015ZM385.65 227.023L45.0718 -114.015L42.2414 -111.188L382.819 229.85L385.65 227.023ZM386.356 227.731L385.65 227.023L382.819 229.85L383.526 230.557L386.356 227.731ZM384.939 231.972L386.355 230.559L383.528 227.729L382.113 229.142L384.939 231.972ZM381.404 231.263L382.111 231.97L384.941 229.144L384.235 228.436L381.404 231.263ZM40.8263 -109.775L381.404 231.263L384.235 228.436L43.6566 -112.601L40.8263 -109.775ZM40.1196 -110.482L40.8263 -109.775L43.6566 -112.601L42.95 -113.309L40.1196 -110.482ZM41.5367 -114.724L40.1215 -113.311L42.9481 -110.481L44.3632 -111.894L41.5367 -114.724ZM30.504 -100.865L31.2107 -100.157L34.041 -102.984L33.3344 -103.691L30.504 -100.865ZM31.9173 -99.4496L33.3325 -100.863L30.5059 -103.693L29.0908 -102.28L31.9173 -99.4496ZM32.6258 -101.57L31.9192 -102.278L29.0889 -99.4515L29.7955 -98.7439L32.6258 -101.57ZM373.204 239.467L32.6258 -101.57L29.7955 -98.7439L370.373 242.294L373.204 239.467ZM373.91 240.175L373.204 239.467L370.373 242.294L371.08 243.001L373.91 240.175ZM372.497 238.76L371.082 240.173L373.909 243.003L375.324 241.59L372.497 238.76ZM371.789 240.88L372.495 241.588L375.326 238.761L374.619 238.054L371.789 240.88ZM31.2107 -100.157L371.789 240.88L374.619 238.054L34.041 -102.984L31.2107 -100.157ZM23.0101 -91.9528L22.3035 -92.6604L19.4731 -89.8339L20.1798 -89.1263L23.0101 -91.9528ZM363.588 249.085L23.0101 -91.9528L20.1798 -89.1263L360.758 251.911L363.588 249.085ZM364.295 249.792L363.588 249.085L360.758 251.911L361.464 252.619L364.295 249.792ZM362.878 254.034L364.293 252.621L361.466 249.79L360.051 251.204L362.878 254.034ZM359.343 253.325L360.049 254.032L362.88 251.206L362.173 250.498L359.343 253.325ZM18.7646 -87.713L359.343 253.325L362.173 250.498L21.5949 -90.5396L18.7646 -87.713ZM18.058 -88.4206L18.7646 -87.713L21.5949 -90.5396L20.8883 -91.2471L18.058 -88.4206ZM19.475 -92.6623L18.0599 -91.249L20.8864 -88.4187L22.3016 -89.832L19.475 -92.6623ZM8.44236 -78.803L9.14899 -78.0954L11.9793 -80.9219L11.2727 -81.6295L8.44236 -78.803ZM9.85562 -77.3878L11.2708 -78.8011L8.44427 -81.6314L7.0291 -80.2181L9.85562 -77.3878ZM10.5642 -79.5087L9.85752 -80.2162L7.0272 -77.3897L7.73383 -76.6821L10.5642 -79.5087ZM351.142 261.529L10.5642 -79.5086L7.73382 -76.6821L348.312 264.355L351.142 261.529ZM351.849 262.237L351.142 261.529L348.312 264.356L349.018 265.063L351.849 262.237ZM350.436 260.821L349.02 262.235L351.847 265.065L353.262 263.652L350.436 260.821ZM349.727 262.942L350.434 263.65L353.264 260.823L352.557 260.116L349.727 262.942ZM9.14899 -78.0954L349.727 262.942L352.557 260.116L11.9793 -80.9219L9.14899 -78.0954ZM0.948341 -69.891L0.241709 -70.5986L-2.58862 -67.7721L-1.88199 -67.0645L0.948341 -69.891ZM341.526 271.147L0.948345 -69.891L-1.88199 -67.0645L338.696 273.973L341.526 271.147ZM342.233 271.854L341.526 271.147L338.696 273.973L339.403 274.681L342.233 271.854ZM340.816 276.096L342.231 274.683L339.405 271.852L337.989 273.266L340.816 276.096ZM337.281 275.386L337.987 276.094L340.818 273.267L340.111 272.56L337.281 275.386ZM-3.29716 -65.6512L337.281 275.386L340.111 272.56L-0.466822 -68.4777L-3.29716 -65.6512ZM-4.00378 -66.3588L-3.29715 -65.6512L-0.466826 -68.4777L-1.17346 -69.1853L-4.00378 -66.3588ZM-2.58671 -70.6005L-4.00188 -69.1872L-1.17536 -66.3569L0.239804 -67.7701L-2.58671 -70.6005ZM-13.6196 -56.7411L-12.913 -56.0336L-10.0826 -58.8601L-10.7893 -59.5677L-13.6196 -56.7411ZM-12.2063 -55.326L-10.7912 -56.7392L-13.6177 -59.5696L-15.0329 -58.1563L-12.2063 -55.326ZM-11.4978 -57.4468L-12.2044 -58.1544L-15.0348 -55.3279L-14.3281 -54.6203L-11.4978 -57.4468ZM329.08 283.591L-11.4978 -57.4468L-14.3281 -54.6203L326.25 286.417L329.08 283.591ZM329.787 284.298L329.08 283.591L326.25 286.417L326.957 287.125L329.787 284.298ZM328.374 282.883L326.958 284.296L329.785 287.127L331.2 285.714L328.374 282.883ZM327.665 285.004L328.372 285.712L331.202 282.885L330.495 282.178L327.665 285.004ZM-12.913 -56.0336L327.665 285.004L330.495 282.178L-10.0826 -58.8601L-12.913 -56.0336ZM-21.1134 -47.8295L-21.82 -48.537L-24.6504 -45.7105L-23.9437 -45.0029L-21.1134 -47.8295ZM319.465 293.208L-21.1134 -47.8295L-23.9437 -45.0029L316.634 296.035L319.465 293.208ZM320.171 293.916L319.465 293.208L316.634 296.035L317.341 296.742L320.171 293.916ZM318.754 298.157L320.169 296.744L317.343 293.914L315.928 295.327L318.754 298.157ZM315.219 297.448L315.926 298.156L318.756 295.329L318.049 294.621L315.219 297.448ZM-25.3589 -43.5897L315.219 297.448L318.049 294.621L-22.5286 -46.4162L-25.3589 -43.5897ZM-26.0655 -44.2973L-25.3589 -43.5897L-22.5286 -46.4162L-23.2352 -47.1238L-26.0655 -44.2973ZM-24.6485 -48.5389L-26.0636 -47.1257L-23.2371 -44.2954L-21.8219 -45.7086L-24.6485 -48.5389ZM-35.681 -34.6796L-34.9744 -33.972L-32.144 -36.7985L-32.8506 -37.5061L-35.681 -34.6796ZM-34.2677 -33.2645L-32.8526 -34.6777L-35.6791 -37.508L-37.0942 -36.0948L-34.2677 -33.2645ZM-33.5592 -35.3853L-34.2658 -36.0929L-37.0962 -33.2664L-36.3895 -32.5588L-33.5592 -35.3853ZM307.019 305.652L-33.5592 -35.3853L-36.3895 -32.5588L304.188 308.479L307.019 305.652ZM307.725 306.36L307.019 305.652L304.188 308.479L304.895 309.186L307.725 306.36ZM306.312 304.945L304.897 306.358L307.724 309.188L309.139 307.775L306.312 304.945ZM305.604 307.066L306.31 307.773L309.141 304.947L308.434 304.239L305.604 307.066ZM-34.9744 -33.972L305.604 307.066L308.434 304.239L-32.144 -36.7985L-34.9744 -33.972ZM-43.1751 -25.7676L-43.8817 -26.4752L-46.7121 -23.6487L-46.0054 -22.9411L-43.1751 -25.7676ZM297.403 315.27L-43.1751 -25.7676L-46.0054 -22.9411L294.573 318.096L297.403 315.27ZM298.11 315.978L297.403 315.27L294.573 318.097L295.279 318.804L298.11 315.978ZM296.693 320.219L298.108 318.806L295.281 315.976L293.866 317.389L296.693 320.219ZM293.157 319.51L293.864 320.217L296.694 317.391L295.988 316.683L293.157 319.51ZM-47.4206 -21.5279L293.157 319.51L295.988 316.683L-44.5903 -24.3544L-47.4206 -21.5279ZM-48.1272 -22.2355L-47.4206 -21.5279L-44.5902 -24.3544L-45.2969 -25.0619L-48.1272 -22.2355ZM-46.7101 -26.4771L-48.1253 -25.0639L-45.2988 -22.2335L-43.8836 -23.6468L-46.7101 -26.4771ZM-57.743 -12.6178L-57.0363 -11.9102L-54.206 -14.7367L-54.9126 -15.4443L-57.743 -12.6178ZM-56.3297 -11.2026L-54.9145 -12.6159L-57.741 -15.4462L-59.1562 -14.033L-56.3297 -11.2026ZM-55.6212 -13.3234L-56.3278 -14.031L-59.1581 -11.2046L-58.4515 -10.497L-55.6212 -13.3234ZM284.957 327.714L-55.6212 -13.3235L-58.4515 -10.497L282.127 330.541L284.957 327.714ZM285.663 328.422L284.957 327.714L282.127 330.541L282.833 331.248L285.663 328.422ZM284.25 327.007L282.835 328.42L285.662 331.25L287.077 329.837L284.25 327.007ZM283.542 329.127L284.248 329.835L287.079 327.008L286.372 326.301L283.542 329.127ZM-57.0363 -11.9102L283.542 329.127L286.372 326.301L-54.206 -14.7367L-57.0363 -11.9102ZM-65.2368 -3.7058L-65.9434 -4.41339L-68.7737 -1.58691L-68.0671 -0.879321L-65.2368 -3.7058ZM275.341 337.332L-65.2368 -3.70581L-68.0671 -0.879304L272.511 340.158L275.341 337.332ZM276.048 338.039L275.341 337.332L272.511 340.158L273.218 340.866L276.048 338.039ZM274.631 342.281L276.046 340.868L273.219 338.037L271.804 339.451L274.631 342.281ZM271.096 341.572L271.802 342.279L274.633 339.453L273.926 338.745L271.096 341.572ZM-69.4823 0.533956L271.096 341.572L273.926 338.745L-66.6519 -2.29255L-69.4823 0.533956ZM-70.1889 -0.173654L-69.4823 0.533939L-66.6519 -2.29254L-67.3585 -3.00013L-70.1889 -0.173654ZM-68.7718 -4.41532L-70.187 -3.00206L-67.3605 -0.171723L-65.9453 -1.58498L-68.7718 -4.41532ZM-79.8046 9.44399L-79.098 10.1516L-76.2677 7.32511L-76.9743 6.61751L-79.8046 9.44399ZM-78.3914 10.8592L-76.9762 9.44592L-79.8027 6.61558L-81.2179 8.02884L-78.3914 10.8592ZM-77.6828 8.73837L-78.3894 8.03077L-81.2198 10.8572L-80.5132 11.5648L-77.6828 8.73837ZM262.895 349.776L-77.6828 8.73835L-80.5132 11.5649L260.065 352.602L262.895 349.776ZM263.602 350.484L262.895 349.776L260.065 352.602L260.771 353.31L263.602 350.484ZM262.189 349.068L260.773 350.482L263.6 353.312L265.015 351.899L262.189 349.068ZM261.48 351.189L262.187 351.897L265.017 349.07L264.31 348.363L261.48 351.189ZM-79.098 10.1516L261.48 351.189L264.31 348.363L-76.2677 7.32509L-79.098 10.1516ZM-87.2984 18.3557L-88.0051 17.6482L-90.8354 20.4746L-90.1288 21.1822L-87.2984 18.3557ZM253.28 359.393L-87.2984 18.3557L-90.1288 21.1822L250.449 362.22L253.28 359.393ZM253.986 360.101L253.28 359.393L250.449 362.22L251.156 362.927L253.986 360.101ZM252.569 364.343L253.984 362.929L251.158 360.099L249.743 361.512L252.569 364.343ZM249.034 363.633L249.741 364.341L252.571 361.514L251.864 360.807L249.034 363.633ZM-91.5439 22.5955L249.034 363.633L251.864 360.807L-88.7136 19.769L-91.5439 22.5955ZM-92.2506 21.8879L-91.544 22.5955L-88.7136 19.769L-89.4202 19.0614L-92.2506 21.8879ZM-90.8335 17.6462L-92.2487 19.0595L-89.4221 21.8898L-88.007 20.4766L-90.8335 17.6462ZM-101.867 31.5055L-101.16 32.2131L-98.3296 29.3867L-99.0362 28.6791L-101.867 31.5055ZM-100.453 32.9207L-99.0382 31.5075L-101.865 28.6771L-103.28 30.0904L-100.453 32.9207ZM-99.7448 30.7999L-100.451 30.0923L-103.282 32.9188L-102.575 33.6264L-99.7448 30.7999ZM240.833 371.838L-99.7448 30.7999L-102.575 33.6264L238.003 374.664L240.833 371.838ZM241.54 372.545L240.833 371.838L238.003 374.664L238.71 375.372L241.54 372.545ZM240.127 371.13L238.711 372.543L241.538 375.374L242.953 373.96L240.127 371.13ZM239.418 373.251L240.125 373.958L242.955 371.132L242.248 370.424L239.418 373.251ZM-101.16 32.2131L239.418 373.251L242.248 370.424L-98.3296 29.3866L-101.16 32.2131ZM-109.36 40.4176L-110.067 39.71L-112.897 42.5364L-112.19 43.244L-109.36 40.4176ZM231.218 381.455L-109.36 40.4175L-112.19 43.244L228.388 384.282L231.218 381.455ZM231.925 382.163L231.218 381.455L228.388 384.282L229.094 384.989L231.925 382.163ZM230.507 386.404L231.923 384.991L229.096 382.161L227.681 383.574L230.507 386.404ZM226.972 385.695L227.679 386.403L230.509 383.576L229.803 382.868L226.972 385.695ZM-113.606 44.6573L226.972 385.695L229.803 382.868L-110.775 41.8308L-113.606 44.6573ZM-114.312 43.9497L-113.606 44.6573L-110.775 41.8308L-111.482 41.1232L-114.312 43.9497ZM-112.895 39.708L-114.31 41.1213L-111.484 43.9516L-110.069 42.5384L-112.895 39.708ZM-123.928 53.5674L-123.221 54.275L-120.391 51.4484L-121.098 50.7409L-123.928 53.5674ZM-122.515 54.9825L-121.1 53.5693L-123.926 50.739L-125.341 52.1522L-122.515 54.9825ZM-121.806 52.8617L-122.513 52.1541L-125.343 54.9806L-124.637 55.6882L-121.806 52.8617ZM218.772 393.899L-121.806 52.8617L-124.637 55.6882L215.941 396.726L218.772 393.899ZM219.478 394.607L218.772 393.899L215.941 396.726L216.648 397.433L219.478 394.607ZM218.065 393.192L216.65 394.605L219.476 397.435L220.892 396.022L218.065 393.192ZM217.356 395.313L218.063 396.02L220.894 393.194L220.187 392.486L217.356 395.313ZM-123.222 54.275L217.357 395.313L220.187 392.486L-120.391 51.4484L-123.222 54.275Z" fill="#9EAD8D" mask="url(#path-2-inside-1_34_318)"/>
</g>
</svg>
