<svg width="111" height="111" viewBox="0 0 111 111" fill="none" xmlns="http://www.w3.org/2000/svg">
<path d="M101.616 25.2218C101.226 25.1293 100.804 25.0779 100.373 25.0779C99.8999 25.0779 99.3552 25.119 98.7488 25.1909C98.1322 25.2732 97.5463 25.3862 96.9811 25.5404C96.4158 25.6945 95.9122 25.9001 95.4702 26.157C95.0283 26.4037 94.7611 26.7223 94.6686 27.1026C94.1958 29.1479 93.3222 31.7276 92.0272 34.852C90.7425 37.9765 89.2624 41.6457 87.5974 45.8493C87.063 47.1957 86.5388 48.5934 86.0249 50.0426C85.5111 51.4918 85.0383 52.9101 84.6169 54.3284C84.3805 55.0993 84.1749 55.8598 83.9899 56.6204C83.9488 56.6512 83.918 56.682 83.8872 56.7129C83.4452 57.1034 82.9725 57.5248 82.4483 57.9873C81.9344 58.4395 81.4308 58.8712 80.9683 59.2618C80.4955 59.6523 80.0536 59.9812 79.6219 60.2279C79.2005 60.4745 78.8408 60.6082 78.5633 60.6082C78.0905 60.6082 77.8541 60.3101 77.8541 59.714C77.8541 59.087 77.9672 58.3368 78.183 57.4529C78.3988 56.5793 78.6866 55.6851 79.0258 54.7909C79.3752 53.8968 79.7452 53.054 80.1563 52.2729C80.5675 51.4918 80.9683 50.8751 81.3794 50.4332C81.5644 50.2482 81.6569 50.0734 81.6569 49.9193C81.6569 49.7651 81.5747 49.6109 81.3897 49.4876C81.2047 49.3643 80.9169 49.3026 80.5777 49.3026C79.293 49.3026 78.2344 49.4259 77.4224 49.6829C76.6105 49.9295 75.9322 50.2687 75.3977 50.7004C74.8633 51.1218 74.4419 51.6357 74.1233 52.2318C73.8047 52.8279 73.5066 53.4754 73.2291 54.164C72.9516 54.8526 72.6433 55.572 72.3144 56.3326C71.9855 57.0829 71.5538 57.8434 71.0194 58.5937C70.5774 59.1898 70.0944 59.6729 69.5599 60.0532C69.0255 60.4334 68.4294 60.6801 67.6277 60.6184C67.0213 60.567 66.713 60.3204 66.5177 60.0326C66.3225 59.7448 66.2197 59.3543 66.2094 59.0048C66.1477 57.6379 66.6513 56.2401 67.4427 54.8012C68.2238 53.3726 69.2722 52.0776 70.5775 50.9162C71.8827 49.7548 73.3833 48.8093 75.0791 48.0898C76.7749 47.3704 78.5119 47.0107 80.3105 47.0107C80.7525 47.0107 81.1841 47.0723 81.6055 47.1957C82.0269 47.319 82.4277 47.3807 82.808 47.3807C83.3733 47.3807 83.6508 47.1032 83.6508 46.5379C83.6508 46.2912 83.6199 46.0445 83.5583 45.8082C83.4966 45.5718 83.435 45.3765 83.3733 45.2223C82.993 44.359 82.3352 43.8554 80.9272 43.8554C78.1933 43.8554 75.5622 44.3282 73.0441 45.2634C70.5158 46.209 68.2855 47.4526 66.3533 49.0045C64.4211 50.5565 62.8794 52.3345 61.718 54.3284C61.2144 55.1815 60.8341 56.0551 60.5463 56.9287C60.0633 57.3501 59.5494 57.7509 59.0047 58.1415C58.1413 58.7582 57.2677 59.2926 56.3941 59.7654C55.5102 60.2382 54.6572 60.6082 53.8247 60.8754C52.9922 61.1426 52.2316 61.2762 51.543 61.2762C50.4433 61.2762 49.6416 60.9782 49.138 60.382C48.6961 59.8579 48.47 59.1487 48.4083 58.2751C48.7063 58.7068 49.1483 59.0048 49.7547 59.159C49.9705 59.2207 50.1555 59.2412 50.32 59.2515C50.4741 59.2618 50.5666 59.2515 50.5974 59.2515C51.1319 59.2515 51.7794 59.0768 52.5297 58.7376C53.28 58.3882 54.0713 57.9359 54.8833 57.3707C55.6952 56.8054 56.4969 56.1579 57.2883 55.4179C58.0694 54.6779 58.7786 53.9276 59.4055 53.1568C60.0324 52.3859 60.495 51.8104 60.8855 51.0395C61.2761 50.2687 61.5227 49.3951 61.5227 48.799C61.5227 48.357 61.5022 47.8226 61.3275 47.2882C61.1527 46.7537 60.8649 46.2398 60.4949 45.7876C60.1147 45.3354 59.5905 44.9551 59.0047 44.6673C58.2852 44.3282 56.9697 44.0815 56.2091 44.0815C54.1638 44.0815 52.9408 44.3693 51.1833 45.3148C49.4258 46.2604 48.2438 47.2882 46.9283 48.7682C45.6127 50.2482 44.4308 52.4373 43.6702 54.2359C42.92 56.0448 42.5397 57.8229 42.5397 59.5804C42.5397 60.4232 42.6836 61.2351 42.9611 62.0059C43.2386 62.7768 43.6908 63.4551 44.3075 64.0307C44.9241 64.6165 45.7052 65.0687 46.6611 65.3976C47.6169 65.7265 48.6755 65.9218 50.0219 65.9218C51.0291 65.9218 52.1597 65.7265 53.2286 65.3976C54.2975 65.0687 55.3252 64.6371 56.3119 64.1026C57.2986 63.5682 58.2338 62.9618 59.1177 62.2629C59.4466 62.0059 59.755 61.7387 60.0633 61.4818C60.1147 61.7696 60.1866 62.2732 60.2894 62.5404C60.608 63.4859 60.9163 64.154 61.6666 64.8118C62.5299 65.5518 63.6708 65.8807 64.5855 65.8807C66.0244 65.8807 66.9802 65.5929 68.2033 64.9968C69.4263 64.4007 70.4952 63.6298 71.4099 62.6843C71.4716 63.342 71.6258 63.897 71.8827 64.3287C72.3863 65.2743 73.3627 65.7368 74.8016 65.7368C76.4049 65.7368 78.0288 65.2229 79.6733 64.1848C80.8141 63.4654 81.9961 62.5198 83.2088 61.3482C83.1986 61.6257 83.1883 61.8929 83.1883 62.1601C83.1883 63.229 83.3938 64.1745 83.805 64.7501C84.2263 65.3462 85.0177 65.7368 86.2099 65.7368C86.8677 65.7368 87.5152 65.6443 88.1422 65.4593C88.7691 65.3051 89.6324 64.9146 90.7322 64.3082C91.8319 63.6915 92.9111 62.9618 93.9799 62.0984C95.0488 61.2351 95.9738 60.2793 96.7549 59.2309C97.5361 58.1826 97.9369 57.1548 97.9369 56.1476C97.9369 55.644 97.6902 55.3562 97.2894 55.3871C97.1352 55.3973 96.868 55.5207 96.5186 55.7673C96.1691 56.014 95.7786 56.3429 95.3366 56.7334C94.8947 57.124 94.4219 57.5454 93.8977 58.0079C93.3838 58.4601 92.8802 58.8918 92.3869 59.2823C91.9038 59.6729 91.4413 60.0018 91.0199 60.2484C90.5986 60.4951 90.2388 60.6287 89.9613 60.6287C89.4886 60.6287 89.2522 60.3307 89.2522 59.7346C89.2522 59.0151 89.5502 57.7612 90.1463 55.9626C90.7424 54.1743 91.4927 52.0982 92.4074 49.7445C93.1886 47.6684 94.0724 45.5101 95.0488 43.249C96.0252 40.9879 96.9605 38.8295 97.8547 36.774C98.7488 34.7184 99.5608 32.8684 100.28 31.2137C101 29.5693 101.534 28.3154 101.884 27.4726C101.976 27.2568 102.058 27.0512 102.12 26.8559C102.182 26.6709 102.233 26.4448 102.243 26.1879C102.264 25.6329 102.007 25.3143 101.616 25.2218ZM48.9941 54.462C49.3025 53.3932 49.7136 52.4579 50.2172 51.6357C50.7208 50.8237 51.3066 50.1659 51.9849 49.6829C52.6633 49.1998 53.4136 48.8812 54.1638 48.912C54.4722 48.9223 54.7702 49.0148 54.9244 49.1484C55.0786 49.2718 55.2224 49.4362 55.3047 49.6212C55.5205 50.1145 55.4897 50.5051 55.4897 50.6284C55.4897 51.2554 55.1299 52.0057 54.688 52.684C54.2461 53.3623 53.7836 53.9173 53.1155 54.4929C52.4372 55.0787 51.6766 55.572 50.8338 55.9729C50.0527 56.3532 49.2819 56.5895 48.5213 56.6923C48.6241 55.9215 48.7886 55.1815 48.9941 54.462Z" fill="white"/>
<path d="M93.3838 20.8536C88.8821 16.352 83.6507 12.8267 77.813 10.36C71.7696 7.80086 65.346 6.50586 58.7374 6.50586C52.1185 6.50586 45.7052 7.80086 39.6619 10.36C33.8241 12.8267 28.5824 16.3622 24.091 20.8536C21.0591 23.8856 18.6438 26.9381 16.4033 30.525C15.8688 31.3884 15.6735 31.7172 15.3755 32.4059C15.1185 33.0225 14.9027 33.6495 14.7794 34.3073C14.728 34.5745 14.6971 34.852 14.6971 35.0884C14.6971 35.9723 14.7896 36.3731 14.9335 36.8253C15.0774 37.2775 15.2624 37.555 15.4269 37.7503C15.6324 37.9867 16.023 38.1717 16.4752 38.1614C17.2049 38.1511 17.616 37.9867 18.3252 37.7195C19.0344 37.4523 19.7024 37.1542 20.3499 36.8253C20.9974 36.4964 21.5627 36.1881 22.0458 35.9106C22.5288 35.6331 22.9194 35.4892 23.1969 35.4892C23.6388 35.52 23.9985 35.7564 24.1733 36.2292C24.348 36.702 24.3788 37.3084 24.3788 38.0278C24.3788 39.7545 24.1733 41.3989 23.7621 42.9714C23.351 44.5439 22.8474 46.0548 22.2513 47.5142C21.6552 48.9736 20.9974 50.3817 20.278 51.7281C19.5585 53.0745 18.9008 54.39 18.3046 55.6645C17.7085 56.9389 17.2049 58.1723 16.7938 59.385C16.3827 60.5978 16.1771 61.7592 16.1771 62.8898C16.1771 64.9042 16.9891 65.9011 18.6233 65.9011C19.1269 65.9011 19.6202 65.7161 20.1033 65.3359C20.5863 64.9556 21.0796 64.3595 21.5833 63.5475C22.0869 62.7356 22.6316 61.6564 23.2071 60.3203C23.7827 58.9842 24.4199 57.3809 25.1188 55.4898C25.8691 53.4856 26.5783 51.3889 27.236 49.1998C27.8938 47.0209 28.1919 45.3353 28.7469 43.4648C28.901 42.9509 29.0758 42.3034 29.5074 41.7381C29.9288 41.1728 30.4838 40.5973 31.193 39.9498C31.8816 39.3228 32.6113 38.6136 33.4746 37.925C34.338 37.2364 35.2321 36.6095 36.1571 36.0648C37.0821 35.52 38.0174 35.0575 38.963 34.6978C39.9085 34.3381 40.8027 34.1531 41.6455 34.1531C42.1491 34.1531 42.6116 34.2148 43.1049 34.4717C43.588 34.7184 43.8552 35.2117 43.8655 35.8078C43.8758 36.3525 43.6805 37.4625 42.4677 39.3125C41.9333 40.1245 41.0391 40.9981 40.4738 41.5736C39.9085 42.1595 39.3946 42.622 38.9219 42.9817C38.4491 43.3414 38.1202 43.5881 37.9352 43.7114C36.9896 44.4309 36.1263 45.0064 35.3452 45.4278C34.5641 45.8492 33.8858 46.1781 33.3205 46.3939C32.6627 46.6406 32.046 46.8153 31.4808 46.9078C31.1621 46.9695 30.8949 47.1339 30.7716 47.3189C30.6483 47.5039 30.5866 47.6992 30.566 47.9561C30.5455 48.1925 30.5455 49.2203 30.5455 49.4464C30.5455 51.5842 30.7921 53.835 31.2752 56.1989C31.7583 58.5731 32.488 60.937 33.4438 63.3111C34.3996 65.6853 35.5816 68.0184 36.9999 70.3309C38.408 72.6434 40.0627 74.7914 41.9435 76.8059C42.5705 77.4945 43.0844 78.0495 43.4955 78.4811C43.9066 78.9025 44.2355 79.2623 44.5027 79.5192C46.0958 80.9992 47.5552 80.6395 48.0485 80.4339C48.5316 80.2284 49.0249 79.992 49.6416 79.6836C50.2583 79.365 50.8955 79.0156 51.5738 78.625C52.2521 78.2345 52.8688 77.8645 53.4341 77.515C53.9994 77.1656 54.4619 76.8573 54.8216 76.5695C55.1813 76.292 55.3458 76.0967 55.3663 76.0042C55.3766 75.9425 55.356 75.8911 55.3458 75.8398C55.3252 75.7884 54.9552 74.9045 54.7805 74.5961C54.6058 74.2775 54.2563 74.0617 53.7219 73.9384C51.9335 73.5889 50.2377 72.8798 48.6344 71.8006C47.031 70.7214 45.551 69.447 44.1841 67.9875C42.8171 66.5281 41.5838 64.9248 40.4841 63.1878C39.3844 61.4406 38.4491 59.7345 37.6783 58.0592C36.9074 56.3839 36.3113 54.7909 35.8899 53.3006C35.4685 51.8103 35.2527 50.5667 35.2527 49.5595C35.2527 49.282 35.3246 49.0148 35.4685 48.7784C35.6124 48.542 35.8488 48.4392 36.1983 48.3261C37.9866 47.8225 39.7441 47.1545 41.4708 46.322C43.1974 45.4895 44.7288 44.5131 46.0649 43.3825C47.401 42.252 48.4699 40.9775 49.2921 39.5695C50.1041 38.1614 50.5152 36.6198 50.5152 34.9548C50.5152 34.5436 50.4946 34.1325 50.4433 33.7111C50.3919 33.2898 50.2891 32.8581 50.1349 32.4161C49.8883 31.6042 49.508 30.8436 49.0044 30.1345C48.5008 29.4253 47.8738 28.8703 47.1235 28.4592C46.3424 28.0173 45.4585 27.8014 44.4821 27.8014C43.5058 27.8014 42.5294 27.9864 41.5427 28.3461C40.556 28.7059 39.6002 29.1684 38.6958 29.7336C37.781 30.2989 36.9177 30.9156 36.0852 31.5734C35.2527 32.2311 34.5024 32.8684 33.8241 33.485C33.1458 34.1017 32.5805 34.6361 32.1077 35.0884C31.6349 35.5406 31.306 35.8489 31.121 36.0031C31.0183 36.1059 30.9463 36.0236 30.9771 35.8592C31.4499 34.225 31.8713 32.7759 32.2516 31.5014C32.6319 30.227 32.8169 29.4047 32.8169 29.0245C32.8169 28.7778 32.7038 28.5414 32.4674 28.3153C32.231 28.0995 31.9741 27.9042 31.6863 27.7295C31.4088 27.5547 31.0696 27.38 30.5866 27.2053C30.4735 27.1745 30.3605 27.195 30.2269 27.2772C28.2535 28.5928 26.5474 29.6206 25.1188 30.3606C23.6902 31.1006 22.426 31.6453 21.3263 32.005C20.9974 32.1181 20.6788 32.2106 20.3808 32.2928C28.233 19.312 42.478 10.6375 58.758 10.6375C72.078 10.6375 84.0516 16.4547 92.2635 25.6739C92.5719 25.0264 93.1166 24.307 94.1135 23.7314C94.5555 23.4847 95.0283 23.2689 95.5319 23.0839C94.8227 22.3439 94.1135 21.5834 93.3838 20.8536Z" fill="white"/>
<path d="M107.732 55.4999C107.732 62.1188 106.437 68.5322 103.877 74.5755C101.411 80.4133 97.8753 85.6447 93.3839 90.1463C88.8822 94.648 83.6508 98.1836 77.813 100.65C71.7697 103.209 65.3461 104.504 58.7375 104.504C52.1186 104.504 45.7053 103.209 39.6619 100.65C33.8242 98.1836 28.5825 94.648 24.0911 90.1463C21.3572 87.4124 18.983 84.4011 16.9789 81.1533C18.1608 80.4236 19.3428 79.6938 20.535 78.9847C28.4283 91.7908 42.5808 100.342 58.7375 100.342C83.5069 100.342 103.579 80.2694 103.579 55.4999C103.579 49.4258 102.367 43.6188 100.177 38.3361C100.249 38.1716 100.321 38.0072 100.393 37.8427C101.123 36.1777 101.791 34.6361 102.408 33.2383C102.942 34.2763 103.436 35.3452 103.888 36.4244C106.437 42.4677 107.732 48.8913 107.732 55.4999Z" fill="white"/>
<path d="M64.7089 72.3247V70.5261H58.3264V78.6764H60.6286V75.8808H64.2156V74.1028H60.6286V72.3247H64.7089Z" fill="white"/>
<path d="M69.8273 78.8408C69.1798 78.8408 68.5837 78.738 68.0287 78.5222C67.4737 78.3166 66.9906 78.0185 66.5898 77.628C66.1889 77.2477 65.8703 76.7955 65.6442 76.2816C65.4181 75.7677 65.3051 75.2024 65.3051 74.5858C65.3051 73.9794 65.4181 73.4244 65.6442 72.9105C65.8703 72.3966 66.1889 71.9547 66.5898 71.5641C66.9906 71.1838 67.4737 70.8858 68.0184 70.6699C68.5734 70.4644 69.1695 70.3513 69.8273 70.3513C70.4748 70.3513 71.0812 70.4541 71.6362 70.6699C72.1912 70.8755 72.6639 71.1735 73.0648 71.5538C73.4656 71.9341 73.7842 72.376 74.0103 72.8899C74.2364 73.4038 74.3495 73.9691 74.3495 74.5755C74.3495 75.1921 74.2364 75.7677 74.0103 76.2816C73.7842 76.7955 73.4656 77.2477 73.0648 77.628C72.6639 78.0083 72.1809 78.3063 71.6259 78.5119C71.0812 78.738 70.4748 78.8408 69.8273 78.8408ZM69.8273 76.9291C70.1356 76.9291 70.4234 76.8777 70.6906 76.7647C70.9578 76.6516 71.1942 76.4974 71.3895 76.2919C71.5848 76.0863 71.7389 75.8397 71.852 75.5622C71.965 75.2744 72.0164 74.9558 72.0164 74.6063C72.0164 74.2466 71.965 73.928 71.852 73.6505C71.7389 73.3627 71.5848 73.1263 71.3895 72.9208C71.1942 72.7152 70.9578 72.561 70.6906 72.448C70.4234 72.3349 70.1356 72.2835 69.8273 72.2835C69.5189 72.2835 69.2312 72.3349 68.9639 72.448C68.6967 72.561 68.4603 72.7152 68.2548 72.9208C68.0492 73.1263 67.895 73.373 67.7923 73.6505C67.6792 73.9383 67.6278 74.2569 67.6278 74.6063C67.6278 74.966 67.6792 75.2847 67.7923 75.5622C67.9053 75.8499 68.0595 76.0863 68.2548 76.2919C68.4603 76.4974 68.6864 76.6516 68.9639 76.7647C69.2312 76.8777 69.5189 76.9291 69.8273 76.9291Z" fill="white"/>
<path d="M79.6733 78.8408C79.0258 78.8408 78.4297 78.738 77.8747 78.5222C77.3197 78.3166 76.8367 78.0185 76.4358 77.628C76.035 77.2477 75.7164 76.7955 75.4903 76.2816C75.2642 75.7677 75.1511 75.2024 75.1511 74.5858C75.1511 73.9794 75.2642 73.4244 75.4903 72.9105C75.7164 72.3966 76.035 71.9547 76.4358 71.5641C76.8367 71.1838 77.3197 70.8858 77.8645 70.6699C78.4195 70.4644 79.0156 70.3513 79.6733 70.3513C80.3208 70.3513 80.9272 70.4541 81.4822 70.6699C82.0372 70.8755 82.51 71.1735 82.9108 71.5538C83.3117 71.9341 83.6303 72.376 83.8564 72.8899C84.0825 73.4038 84.1956 73.9691 84.1956 74.5755C84.1956 75.1921 84.0825 75.7677 83.8564 76.2816C83.6303 76.7955 83.3117 77.2477 82.9108 77.628C82.51 78.0083 82.027 78.3063 81.472 78.5119C80.9272 78.738 80.3311 78.8408 79.6733 78.8408ZM79.6733 76.9291C79.9817 76.9291 80.2695 76.8777 80.5367 76.7647C80.8039 76.6516 81.0403 76.4974 81.2356 76.2919C81.4308 76.0863 81.585 75.8397 81.6981 75.5622C81.8111 75.2744 81.8625 74.9558 81.8625 74.6063C81.8625 74.2466 81.8111 73.928 81.6981 73.6505C81.585 73.3627 81.4308 73.1263 81.2356 72.9208C81.0403 72.7152 80.8039 72.561 80.5367 72.448C80.2695 72.3349 79.9817 72.2835 79.6733 72.2835C79.365 72.2835 79.0772 72.3349 78.81 72.448C78.5428 72.561 78.3064 72.7152 78.1008 72.9208C77.8953 73.1263 77.7411 73.373 77.6383 73.6505C77.5253 73.9383 77.4739 74.2569 77.4739 74.6063C77.4739 74.966 77.5253 75.2847 77.6383 75.5622C77.7514 75.8499 77.9056 76.0863 78.1008 76.2919C78.3064 76.4974 78.5325 76.6516 78.81 76.7647C79.0772 76.8777 79.365 76.9291 79.6733 76.9291Z" fill="white"/>
<path d="M85.429 78.6764V70.5261H89.2831C90.1773 70.5261 90.9687 70.6906 91.647 71.0297C92.3253 71.3586 92.8598 71.8314 93.2503 72.4378C93.6306 73.0442 93.8259 73.7636 93.8259 74.5961C93.8259 75.4389 93.6306 76.1583 93.2503 76.7647C92.8701 77.3711 92.3356 77.8439 91.647 78.1831C90.9687 78.512 90.1773 78.6867 89.2831 78.6867H85.429V78.6764ZM87.7312 76.8367H89.1598C89.6326 76.8367 90.0437 76.7442 90.3931 76.5695C90.7426 76.3947 91.0098 76.1378 91.2051 75.7986C91.4003 75.4595 91.4928 75.0586 91.4928 74.6064C91.4928 74.1336 91.4003 73.7328 91.2051 73.4039C91.0098 73.075 90.7426 72.8181 90.3931 72.6433C90.0437 72.4686 89.6428 72.3761 89.1598 72.3761H87.7312V76.8367Z" fill="white"/>
<path d="M59.4159 33.413L59.0047 31.9844L62.4889 30.9875L62.0161 29.343L58.532 30.34L58.162 29.0244L62.1189 27.9042L61.6256 26.1775L55.4897 27.9247L57.72 35.7564L63.9997 33.968L63.5064 32.2517L59.4159 33.413Z" fill="white"/>
<path d="M70.8961 25.7151L66.5795 33.5056L68.9228 33.7215L69.7039 32.1901L73.1367 32.4984L73.63 34.1429L76.0145 34.3587L73.1572 25.9104L70.8961 25.7151ZM70.5261 30.5662L71.8006 28.0687L72.6022 30.7615L70.5261 30.5662Z" fill="white"/>
<path d="M81.215 27.668L80.4339 29.3124L82.695 30.3916L79.9919 36.0957L82.0681 37.0824L84.7814 31.3782L87.0322 32.4471L87.8133 30.7924L81.215 27.668Z" fill="white"/>
<path d="M36.9383 81.5132L29.0142 85.6654L29.9597 86.4054L31.9228 85.3468L35.335 88.019L34.7903 90.1774L35.7564 90.9276L37.853 82.2224L36.9383 81.5132ZM32.8169 84.8637L36.6608 82.7979L35.5817 87.0324L32.8169 84.8637Z" fill="white"/>
<path d="M43.3003 88.8412C43.588 88.5432 43.9169 88.3068 44.2869 88.1526C44.6569 87.9985 45.0578 87.9162 45.4894 87.906C45.9211 87.906 46.3528 87.9882 46.7844 88.1526C47.2161 88.3171 47.5861 88.5329 47.8944 88.8207C48.2028 89.0982 48.4597 89.4579 48.655 89.8793L49.5903 89.4579C49.395 88.9337 49.0764 88.4815 48.655 88.091C48.2233 87.7004 47.7094 87.4023 47.1133 87.166C46.5172 86.9398 45.9417 86.8268 45.3661 86.8371C44.8008 86.8371 44.2664 86.9501 43.7628 87.166C43.2592 87.3818 42.8172 87.6798 42.4369 88.0807C42.0567 88.4712 41.7586 88.9543 41.5428 89.5196C41.3269 90.0848 41.2344 90.6398 41.255 91.1948C41.2755 91.7396 41.4092 92.2637 41.6353 92.7571C41.8614 93.2504 42.1903 93.6821 42.6117 94.0623C43.033 94.4426 43.5367 94.7407 44.1225 94.9668C44.6569 95.1723 45.2119 95.2854 45.7772 95.3162C46.3425 95.3471 46.8769 95.2751 47.3703 95.0901L48.5008 92.1198L47.4525 91.719L46.5172 94.196C46.2705 94.2473 46.0239 94.2782 45.7875 94.2679C45.3661 94.2576 44.955 94.1651 44.5439 94.011C44.1122 93.8465 43.7319 93.6204 43.4236 93.3326C43.105 93.0448 42.8686 92.716 42.6939 92.3562C42.5192 91.9862 42.4267 91.5957 42.4164 91.1846C42.4061 90.7735 42.478 90.3521 42.6322 89.941C42.7967 89.499 43.0125 89.1393 43.3003 88.8412Z" fill="white"/>
<path d="M59.755 97.6493L60.9781 97.7212L57.7509 89.3654L56.5998 89.3037L52.4373 97.2279L53.6398 97.2998L54.647 95.3162L58.9739 95.5629L59.755 97.6493ZM55.1095 94.4015L57.0931 90.5165L58.6142 94.607L55.1095 94.4015Z" fill="white"/>
<path d="M66.302 96.9915L64.8939 88.9646L66.045 88.759L67.4531 96.786L66.302 96.9915Z" fill="white"/>
<path d="M80.3311 92.3151L77.0011 84.874L75.9424 85.3571L78.4194 90.8968L71.4819 87.351L70.6083 87.7415L73.9383 95.1826L74.9969 94.7099L72.5199 89.1599L79.4677 92.7057L80.3311 92.3151Z" fill="white"/>
<path d="M19.2811 77.1656C19.2811 77.1656 17.8936 68.8714 9.56858 67.0009L3.27858 65.675C3.27858 65.675 2.91885 71.1531 7.04024 75.8089C11.1616 80.4648 16.9789 81.1534 16.9789 81.1534C16.9789 81.1534 15.3961 75.2231 10.2675 70.8345C10.2572 70.8242 14.6664 71.6156 19.2811 77.1656Z" fill="white"/>
<path d="M26.0131 81.6879C26.0131 81.6879 31.3472 77.5048 26.0028 69.3237C26.0028 69.3237 20.3192 74.3496 22.642 82.0785C22.642 82.0785 25.4581 78.9951 26.0131 74.6065C26.0028 74.6065 27.6883 77.9571 26.0131 81.6879Z" fill="white"/>
<path d="M20.8227 86.5594C20.8227 86.5594 18.3355 84.2469 13.8955 86.1791C13.8955 86.1791 16.4547 90.8144 21.2236 88.1833C21.2236 88.1833 19.8875 87.1041 17.5647 86.5594C17.5544 86.5594 19.0447 86.1894 20.8227 86.5594Z" fill="white"/>
</svg>
