<svg width="32" height="32" viewBox="0 0 32 32" fill="none" xmlns="http://www.w3.org/2000/svg">
<g clip-path="url(#clip0_1014_2207)">
<path d="M30.826 1.16263C30.4093 0.746884 29.9055 0.428752 29.351 0.231161C28.7965 0.0335692 28.2051 -0.0385617 27.6193 0.0199655C23.8953 0.379966 11.3713 1.93063 6.534 6.76263C4.22169 9.08124 2.85053 12.1744 2.6853 15.4448C2.52007 18.7152 3.57249 21.9308 5.63933 24.4706L0.386001 29.724C0.143124 29.9754 0.00873126 30.3122 0.0117692 30.6618C0.014807 31.0114 0.155032 31.3458 0.402243 31.5931C0.649454 31.8403 0.983871 31.9805 1.33347 31.9835C1.68306 31.9866 2.01987 31.8522 2.27133 31.6093L7.52467 26.356C10.064 28.4256 13.2805 29.4802 16.5523 29.3159C19.824 29.1517 22.9187 27.7802 25.238 25.4666C30.1393 20.564 31.638 8.07863 31.9833 4.3693C32.0398 3.78246 31.9653 3.19041 31.7651 2.63587C31.565 2.08134 31.2442 1.57815 30.826 1.16263ZM23.3593 23.576C21.5413 25.3873 19.1263 26.4751 16.565 26.6363C14.0038 26.7975 11.4714 26.0211 9.44067 24.452L22.2833 11.6093C22.5262 11.3578 22.6606 11.021 22.6576 10.6714C22.6545 10.3218 22.5143 9.98742 22.2671 9.74021C22.0199 9.493 21.6855 9.35277 21.3359 9.34973C20.9863 9.3467 20.6495 9.48109 20.398 9.72397L7.54867 22.5666C5.9793 20.536 5.20271 18.0036 5.36391 15.4422C5.52511 12.8809 6.61309 10.4658 8.42467 8.64797C11.77 5.30397 20.994 3.3333 27.8767 2.6733C28.0716 2.65433 28.2683 2.67854 28.4528 2.7442C28.6374 2.80987 28.8051 2.91538 28.9443 3.05323C29.0834 3.19108 29.1904 3.35789 29.2578 3.5418C29.3252 3.72571 29.3512 3.9222 29.334 4.1173C28.6673 11.3 26.746 20.1826 23.3527 23.576H23.3593Z" fill="white"/>
</g>
<defs>
<clipPath id="clip0_1014_2207">
<rect width="32" height="32" fill="white"/>
</clipPath>
</defs>
</svg>
