<svg width="32" height="32" viewBox="0 0 32 32" fill="none" xmlns="http://www.w3.org/2000/svg">
<g clip-path="url(#clip0_0_74)">
<path d="M30.9253 15.4667C30.2169 14.5206 29.2103 13.8409 28.068 13.5373C28.6247 11.9189 29.0361 10.2541 29.2973 8.56265C29.3827 7.94781 29.3241 7.32155 29.1263 6.73317C28.9285 6.14479 28.5968 5.61036 28.1574 5.17195C27.7179 4.73354 27.1827 4.40311 26.5939 4.20669C26.005 4.01026 25.3786 3.9532 24.764 4.03998C24.596 4.06265 24.0973 4.13598 23.416 4.26798C23.8379 3.33393 24.0378 2.31487 24 1.29065C23.9944 1.11555 23.9544 0.943277 23.8822 0.783654C23.81 0.624031 23.7071 0.480188 23.5793 0.360338C23.4515 0.240489 23.3014 0.14698 23.1375 0.08515C22.9736 0.0233203 22.7991 -0.00561918 22.624 -1.61137e-05C22.4489 0.00558695 22.2766 0.0456228 22.117 0.117806C21.9574 0.189989 21.8135 0.292905 21.6937 0.420678C21.5738 0.548452 21.4803 0.69858 21.4185 0.862492C21.3567 1.0264 21.3277 1.20089 21.3333 1.37598C21.3561 2.02007 21.2239 2.66022 20.948 3.24265C20.7552 2.72219 20.4801 2.23602 20.1333 1.80265C19.5439 1.13185 18.7957 0.619519 17.9572 0.312522C17.1187 0.00552456 16.2165 -0.0863441 15.3333 0.0453173C14.3649 0.123052 13.4393 0.477579 12.6667 1.06665C11.7933 0.409575 10.7366 0.0413574 9.644 0.0133172C8.25758 -0.121056 6.87441 0.29941 5.79733 1.18265C5.25044 1.66954 4.80888 2.26313 4.4998 2.92692C4.19071 3.59072 4.02063 4.31071 4 5.04265C3.96341 6.21468 4.30465 7.36741 4.97333 8.33065C4.15987 9.02812 3.52841 9.91312 3.1335 10.9092C2.73859 11.9053 2.59209 12.9826 2.70667 14.048C1.65221 14.6356 0.830459 15.5662 0.377879 16.6853C-0.0747003 17.8044 -0.130881 19.0446 0.218667 20.2C1.13201 23.378 2.83197 26.2744 5.16133 28.6213C7.39601 30.8003 10.3975 32.0137 13.5187 32H18.4813C21.6021 32.014 24.6033 30.8005 26.8373 28.6213C29.1676 26.2748 30.868 23.3783 31.7813 20.2C32.0194 19.3991 32.0659 18.5535 31.9173 17.7313C31.7686 16.9092 31.4288 16.1334 30.9253 15.4667ZM25.1347 6.67999C25.341 6.65214 25.551 6.67238 25.7482 6.73912C25.9454 6.80586 26.1246 6.91729 26.2716 7.06471C26.4186 7.21213 26.5296 7.39155 26.5958 7.58895C26.662 7.78635 26.6817 7.99639 26.6533 8.20265C26.3737 9.95357 25.9204 11.6723 25.3 13.3333H21.8853L23.6093 11.6093C23.8522 11.3578 23.9866 11.021 23.9836 10.6715C23.9805 10.3219 23.8403 9.98744 23.5931 9.74023C23.3459 9.49302 23.0115 9.35279 22.6619 9.34975C22.3123 9.34671 21.9755 9.48111 21.724 9.72399L18.1147 13.3333H16.0493C15.952 12.6321 16.0188 11.9177 16.2446 11.2467C16.4705 10.5757 16.8491 9.96634 17.3507 9.46665C17.92 8.89198 20.1027 7.33332 25.1347 6.67999ZM6.66667 5.13198C6.67468 4.76491 6.75744 4.40333 6.90989 4.06932C7.06234 3.7353 7.28128 3.43587 7.55333 3.18932C8.10343 2.78271 8.78682 2.59889 9.46667 2.67465C9.79504 2.66115 10.1226 2.71725 10.4277 2.83927C10.7329 2.96129 11.0088 3.14647 11.2373 3.38265C11.4172 3.58367 11.6375 3.74446 11.8838 3.85451C12.1301 3.96457 12.3969 4.02141 12.6667 4.02132C12.9358 4.01999 13.2017 3.96209 13.447 3.85137C13.6923 3.74065 13.9116 3.5796 14.0907 3.37865C14.2895 3.16829 14.5282 2.99951 14.7927 2.8821C15.0573 2.76468 15.3426 2.70097 15.632 2.69465C16.0727 2.61614 16.5261 2.64813 16.9514 2.78774C17.3768 2.92735 17.7609 3.17023 18.0693 3.49465C18.4741 4.01284 18.6854 4.65604 18.6667 5.31332C18.6667 5.39998 18.6667 5.58932 18.6667 5.58932C16.8967 6.22668 15.3847 7.42719 14.3627 9.00665C13.5207 8.00995 12.4005 7.28719 11.1454 6.93089C9.89027 6.5746 8.55737 6.60097 7.31733 7.00665C6.87486 6.48442 6.64288 5.81605 6.66667 5.13198ZM5.33333 13.3333C5.33333 12.2725 5.75476 11.255 6.50491 10.5049C7.25505 9.75475 8.27247 9.33332 9.33333 9.33332C10.3942 9.33332 11.4116 9.75475 12.1618 10.5049C12.9119 11.255 13.3333 12.2725 13.3333 13.3333H5.33333ZM29.2213 19.452C28.4247 22.1949 26.9585 24.6966 24.9547 26.732C23.2221 28.4153 20.897 29.3497 18.4813 29.3333H13.5187C11.1024 29.3491 8.77662 28.4149 7.04267 26.732C5.03878 24.6967 3.57256 22.1949 2.776 19.452C2.65647 19.0483 2.63328 18.6222 2.70831 18.2079C2.78334 17.7937 2.95448 17.4028 3.208 17.0667C3.45399 16.7348 3.77447 16.4655 4.14362 16.2802C4.51278 16.0949 4.92029 15.9989 5.33333 16H26.6667C27.0811 15.9977 27.4902 16.0931 27.8608 16.2784C28.2315 16.4637 28.5532 16.7338 28.8 17.0667C29.0517 17.4037 29.2209 17.795 29.2941 18.2093C29.3673 18.6235 29.3424 19.0491 29.2213 19.452Z" fill="white"/>
</g>
<defs>
<clipPath id="clip0_0_74">
<rect width="32" height="32" fill="white"/>
</clipPath>
</defs>
</svg>
