<svg width="32" height="32" viewBox="0 0 32 32" fill="none" xmlns="http://www.w3.org/2000/svg">
<g clip-path="url(#clip0_1657_2149)">
<path d="M15.9993 16C20.4113 16 23.9993 12.412 23.9993 8C23.9993 3.588 20.4113 0 15.9993 0C11.5873 0 7.99935 3.588 7.99935 8C7.99935 12.412 11.5873 16 15.9993 16ZM15.9993 2.66667C18.9407 2.66667 21.3327 5.05867 21.3327 8C21.3327 10.9413 18.9407 13.3333 15.9993 13.3333C13.058 13.3333 10.666 10.9413 10.666 8C10.666 5.05867 13.058 2.66667 15.9993 2.66667ZM29.3327 30.6667C29.3327 31.404 28.7367 32 27.9993 32C27.262 32 26.666 31.404 26.666 30.6667C26.666 26.952 24.4833 23.736 21.3327 22.2347V25.5627C22.8847 26.1133 23.9993 27.5947 23.9993 29.3333V30.6667C23.9993 31.404 23.4033 32 22.666 32C21.9287 32 21.3327 31.404 21.3327 30.6667V29.3333C21.3327 28.5973 20.7353 28 19.9993 28C19.2633 28 18.666 28.5973 18.666 29.3333V30.6667C18.666 31.404 18.07 32 17.3327 32C16.5953 32 15.9993 31.404 15.9993 30.6667V29.3333C15.9993 27.5947 17.114 26.1133 18.666 25.5627V21.4293C18.23 21.3667 17.7847 21.3333 17.3327 21.3333H14.666C13.7393 21.3333 12.8447 21.4693 11.9993 21.7227V25.692C12.7967 26.1533 13.3327 27.0147 13.3327 28.0013C13.3327 29.4747 12.1393 30.668 10.666 30.668C9.19268 30.668 7.99935 29.4747 7.99935 28.0013C7.99935 27.0147 8.53535 26.1533 9.33268 25.692V23.0133C6.91668 24.7027 5.33268 27.504 5.33268 30.668C5.33268 31.4053 4.73668 32.0013 3.99935 32.0013C3.26202 32.0013 2.66602 31.4053 2.66602 30.668C2.66602 24.0507 8.04868 18.668 14.666 18.668H17.3327C23.95 18.668 29.3327 24.0493 29.3327 30.6667Z" fill="white"/>
</g>
<defs>
<clipPath id="clip0_1657_2149">
<rect width="32" height="32" fill="white"/>
</clipPath>
</defs>
</svg>
