<svg width="74" height="74" viewBox="0 0 74 74" fill="none" xmlns="http://www.w3.org/2000/svg">
<path d="M67.7442 16.8144C67.4838 16.7528 67.2029 16.7185 66.9151 16.7185C66.5999 16.7185 66.2368 16.7459 65.8325 16.7939C65.4214 16.8487 65.0308 16.9241 64.654 17.0268C64.2771 17.1296 63.9414 17.2667 63.6468 17.438C63.3521 17.6024 63.174 17.8148 63.1123 18.0683C62.7971 19.4318 62.2147 21.1517 61.3514 23.2346C60.4949 25.3176 59.5083 27.7637 58.3983 30.5661C58.042 31.4637 57.6925 32.3955 57.3499 33.3617C57.0073 34.3278 56.6921 35.2733 56.4112 36.2189C56.2536 36.7328 56.1166 37.2398 55.9933 37.7468C55.9659 37.7674 55.9453 37.788 55.9247 37.8085C55.6301 38.0689 55.3149 38.3498 54.9655 38.6581C54.6229 38.9596 54.2871 39.2474 53.9788 39.5078C53.6636 39.7681 53.369 39.9874 53.0812 40.1518C52.8003 40.3163 52.5605 40.4054 52.3755 40.4054C52.0603 40.4054 51.9027 40.2067 51.9027 39.8092C51.9027 39.3913 51.9781 38.8911 52.122 38.3018C52.2659 37.7194 52.4577 37.1233 52.6838 36.5272C52.9168 35.9311 53.1634 35.3692 53.4375 34.8485C53.7116 34.3278 53.9788 33.9167 54.2529 33.622C54.3762 33.4987 54.4379 33.3822 54.4379 33.2794C54.4379 33.1767 54.3831 33.0739 54.2597 32.9917C54.1364 32.9094 53.9446 32.8683 53.7184 32.8683C52.862 32.8683 52.1562 32.9505 51.6149 33.1218C51.0736 33.2863 50.6214 33.5124 50.2651 33.8002C49.9088 34.0811 49.6279 34.4237 49.4155 34.8211C49.2031 35.2185 49.0044 35.6502 48.8194 36.1092C48.6344 36.5683 48.4288 37.0479 48.2096 37.555C47.9903 38.0552 47.7025 38.5622 47.3462 39.0624C47.0516 39.4598 46.7296 39.7818 46.3733 40.0354C46.017 40.2889 45.6196 40.4533 45.0851 40.4122C44.6809 40.378 44.4753 40.2135 44.3451 40.0217C44.2149 39.8298 44.1464 39.5694 44.1396 39.3365C44.0984 38.4252 44.4342 37.4933 44.9618 36.5341C45.4825 35.5817 46.1814 34.7183 47.0516 33.9441C47.9218 33.1698 48.9221 32.5394 50.0527 32.0598C51.1833 31.5802 52.3412 31.3404 53.5403 31.3404C53.8349 31.3404 54.1227 31.3815 54.4036 31.4637C54.6846 31.5459 54.9518 31.587 55.2053 31.587C55.5821 31.587 55.7672 31.402 55.7672 31.0252C55.7672 30.8607 55.7466 30.6963 55.7055 30.5387C55.6644 30.3811 55.6233 30.2509 55.5821 30.1481C55.3286 29.5726 54.8901 29.2368 53.9514 29.2368C52.1288 29.2368 50.3747 29.552 48.696 30.1755C47.0105 30.8059 45.5236 31.635 44.2355 32.6696C42.9473 33.7042 41.9196 34.8896 41.1453 36.2189C40.8096 36.7876 40.556 37.37 40.3642 37.9524C40.0421 38.2333 39.6996 38.5005 39.3364 38.7609C38.7609 39.172 38.1784 39.5283 37.596 39.8435C37.0068 40.1587 36.4381 40.4054 35.8831 40.5835C35.3281 40.7617 34.821 40.8507 34.362 40.8507C33.6288 40.8507 33.0944 40.652 32.7586 40.2546C32.464 39.9052 32.3133 39.4324 32.2721 38.85C32.4709 39.1378 32.7655 39.3365 33.1697 39.4392C33.3136 39.4804 33.437 39.4941 33.5466 39.5009C33.6494 39.5078 33.711 39.5009 33.7316 39.5009C34.0879 39.5009 34.5196 39.3844 35.0197 39.1583C35.5199 38.9254 36.0475 38.6239 36.5888 38.247C37.1301 37.8702 37.6646 37.4385 38.1922 36.9452C38.7129 36.4518 39.1857 35.9517 39.6036 35.4378C40.0216 34.9239 40.3299 34.5402 40.5903 34.0263C40.8507 33.5124 41.0151 32.93 41.0151 32.5326C41.0151 32.2379 41.0014 31.8817 40.8849 31.5254C40.7684 31.1691 40.5766 30.8265 40.3299 30.525C40.0764 30.2235 39.727 29.97 39.3364 29.7781C38.8568 29.552 37.9797 29.3876 37.4727 29.3876C36.1092 29.3876 35.2938 29.5794 34.1221 30.2098C32.9505 30.8402 32.1625 31.5254 31.2855 32.512C30.4084 33.4987 29.6205 34.9581 29.1134 36.1572C28.6133 37.3631 28.3597 38.5485 28.3597 39.7202C28.3597 40.282 28.4557 40.8233 28.6407 41.3372C28.8257 41.8511 29.1271 42.3033 29.5383 42.687C29.9494 43.0776 30.4701 43.3791 31.1073 43.5983C31.7446 43.8176 32.4503 43.9478 33.3479 43.9478C34.0194 43.9478 34.7731 43.8176 35.4857 43.5983C36.1983 43.3791 36.8834 43.0913 37.5412 42.735C38.199 42.3787 38.8225 41.9744 39.4118 41.5085C39.631 41.3372 39.8366 41.1591 40.0422 40.9878C40.0764 41.1796 40.1244 41.5154 40.1929 41.6935C40.4053 42.3239 40.6109 42.7692 41.111 43.2078C41.6866 43.7011 42.4472 43.9204 43.057 43.9204C44.0162 43.9204 44.6534 43.7285 45.4688 43.3311C46.2842 42.9337 46.9968 42.4198 47.6066 41.7894C47.6477 42.228 47.7505 42.598 47.9218 42.8857C48.2575 43.5161 48.9084 43.8244 49.8677 43.8244C50.9366 43.8244 52.0192 43.4818 53.1155 42.7898C53.876 42.3102 54.664 41.6798 55.4725 40.8987C55.4657 41.0837 55.4588 41.2618 55.4588 41.44C55.4588 42.1526 55.5959 42.783 55.8699 43.1667C56.1509 43.5641 56.6784 43.8244 57.4733 43.8244C57.9118 43.8244 58.3434 43.7628 58.7614 43.6394C59.1794 43.5367 59.7549 43.2763 60.4881 42.872C61.2212 42.4609 61.9407 41.9744 62.6533 41.3989C63.3659 40.8233 63.9825 40.1861 64.5033 39.4872C65.024 38.7883 65.2912 38.1031 65.2912 37.4317C65.2912 37.0959 65.1268 36.9041 64.8596 36.9246C64.7568 36.9315 64.5786 37.0137 64.3457 37.1781C64.1127 37.3426 63.8523 37.5618 63.5577 37.8222C63.2631 38.0826 62.9479 38.3635 62.5984 38.6718C62.2559 38.9733 61.9201 39.2611 61.5912 39.5215C61.2692 39.7818 60.9608 40.0011 60.6799 40.1655C60.399 40.33 60.1592 40.4191 59.9742 40.4191C59.659 40.4191 59.5014 40.2204 59.5014 39.823C59.5014 39.3433 59.7001 38.5074 60.0975 37.3083C60.4949 36.1161 60.9951 34.732 61.6049 33.163C62.1257 31.7789 62.7149 30.34 63.3659 28.8326C64.0168 27.3252 64.6403 25.8863 65.2364 24.5159C65.8325 23.1455 66.3738 21.9122 66.8534 20.8091C67.3331 19.7128 67.6894 18.8768 67.9223 18.315C67.984 18.1711 68.0388 18.0341 68.0799 17.9039C68.121 17.7805 68.1553 17.6298 68.1622 17.4585C68.1759 17.0885 68.0046 16.8761 67.7442 16.8144ZM32.6627 36.308C32.8683 35.5954 33.1423 34.9718 33.4781 34.4237C33.8138 33.8824 34.2044 33.4439 34.6566 33.1218C35.1088 32.7998 35.609 32.5874 36.1092 32.608C36.3147 32.6148 36.5134 32.6765 36.6162 32.7655C36.719 32.8478 36.8149 32.9574 36.8697 33.0807C37.0136 33.4096 36.9931 33.67 36.9931 33.7522C36.9931 34.1702 36.7533 34.6704 36.4586 35.1226C36.164 35.5748 35.8557 35.9448 35.4103 36.3285C34.9581 36.7191 34.451 37.0479 33.8892 37.3152C33.3684 37.5687 32.8546 37.7263 32.3475 37.7948C32.416 37.2809 32.5257 36.7876 32.6627 36.308Z" fill="#0D4437"/>
<path d="M62.2559 13.9023C59.2548 10.9012 55.7672 8.55105 51.8753 6.9066C47.8464 5.20049 43.564 4.33716 39.1583 4.33716C34.7457 4.33716 30.4701 5.20049 26.4412 6.9066C22.5494 8.55105 19.0549 10.9081 16.0607 13.9023C14.0394 15.9236 12.4292 17.9586 10.9355 20.3499C10.5792 20.9255 10.449 21.1448 10.2503 21.6038C10.079 22.0149 9.93513 22.4329 9.85291 22.8714C9.81865 23.0496 9.7981 23.2346 9.7981 23.3922C9.7981 23.9814 9.85976 24.2486 9.95569 24.5501C10.0516 24.8516 10.1749 25.0366 10.2846 25.1668C10.4216 25.3244 10.682 25.4477 10.9835 25.4409C11.4699 25.434 11.744 25.3244 12.2168 25.1462C12.6896 24.9681 13.1349 24.7694 13.5666 24.5501C13.9983 24.3309 14.3751 24.1253 14.6972 23.9403C15.0192 23.7553 15.2796 23.6594 15.4646 23.6594C15.7592 23.6799 15.999 23.8375 16.1155 24.1527C16.232 24.4679 16.2525 24.8722 16.2525 25.3518C16.2525 26.5029 16.1155 27.5992 15.8414 28.6475C15.5674 29.6959 15.2316 30.7031 14.8342 31.676C14.4368 32.649 13.9983 33.5877 13.5187 34.4853C13.039 35.3829 12.6005 36.2599 12.2031 37.1096C11.8057 37.9592 11.4699 38.7814 11.1959 39.5899C10.9218 40.3985 10.7848 41.1727 10.7848 41.9264C10.7848 43.2694 11.3261 43.934 12.4155 43.934C12.7512 43.934 13.0801 43.8107 13.4022 43.5572C13.7242 43.3036 14.0531 42.9062 14.3888 42.3649C14.7246 41.8236 15.0877 41.1042 15.4714 40.2135C15.8551 39.3227 16.2799 38.2538 16.7459 36.9931C17.2461 35.657 17.7188 34.2592 18.1574 32.7998C18.5959 31.3472 18.7946 30.2235 19.1646 28.9764C19.2674 28.6338 19.3838 28.2022 19.6716 27.8253C19.9525 27.4485 20.3225 27.0648 20.7953 26.6331C21.2544 26.2151 21.7409 25.7423 22.3164 25.2833C22.892 24.8242 23.4881 24.4062 24.1048 24.0431C24.7214 23.6799 25.3449 23.3716 25.9753 23.1318C26.6057 22.892 27.2018 22.7686 27.7637 22.7686C28.0994 22.7686 28.4077 22.8098 28.7366 22.981C29.0586 23.1455 29.2368 23.4744 29.2436 23.8718C29.2505 24.2349 29.1203 24.9749 28.3118 26.2083C27.9555 26.7496 27.3594 27.332 26.9825 27.7157C26.6057 28.1062 26.2631 28.4146 25.9479 28.6544C25.6327 28.8942 25.4135 29.0586 25.2901 29.1409C24.6598 29.6205 24.0842 30.0042 23.5635 30.2851C23.0427 30.566 22.5905 30.7853 22.2137 30.9292C21.7751 31.0936 21.364 31.2101 20.9872 31.2718C20.7748 31.3129 20.5966 31.4225 20.5144 31.5459C20.4322 31.6692 20.3911 31.7994 20.3774 31.9707C20.3636 32.1283 20.3637 32.8135 20.3637 32.9642C20.3637 34.3894 20.5281 35.8899 20.8501 37.4659C21.1722 39.0486 21.6586 40.6246 22.2959 42.2073C22.9331 43.7901 23.7211 45.3455 24.6666 46.8872C25.6053 48.4288 26.7085 49.8609 27.9624 51.2038C28.3803 51.6629 28.7229 52.0329 28.997 52.3207C29.2711 52.6016 29.4903 52.8414 29.6685 53.0127C30.7305 53.9994 31.7035 53.7596 32.0324 53.6225C32.3544 53.4855 32.6833 53.3279 33.0944 53.1223C33.5055 52.9099 33.9303 52.677 34.3825 52.4166C34.8348 52.1562 35.2459 51.9096 35.6227 51.6766C35.9996 51.4436 36.3079 51.2381 36.5477 51.0462C36.7875 50.8612 36.8972 50.731 36.9109 50.6694C36.9177 50.6283 36.904 50.594 36.8972 50.5598C36.8835 50.5255 36.6368 49.9362 36.5203 49.7307C36.4038 49.5183 36.1709 49.3744 35.8146 49.2922C34.6224 49.0592 33.4918 48.5864 32.4229 47.867C31.354 47.1475 30.3674 46.2979 29.4561 45.3249C28.5448 44.352 27.7225 43.2831 26.9894 42.1251C26.2562 40.9603 25.6327 39.8229 25.1188 38.7061C24.6049 37.5892 24.2075 36.5272 23.9266 35.5336C23.6457 34.5401 23.5018 33.7111 23.5018 33.0396C23.5018 32.8546 23.5498 32.6764 23.6457 32.5188C23.7416 32.3612 23.8992 32.2927 24.1322 32.2173C25.3244 31.8816 26.4961 31.4362 27.6472 30.8812C28.7983 30.3262 29.8192 29.6753 30.7099 28.9216C31.6007 28.1679 32.3133 27.3183 32.8614 26.3796C33.4027 25.4409 33.6768 24.4131 33.6768 23.3031C33.6768 23.029 33.6631 22.7549 33.6288 22.474C33.5946 22.1931 33.5261 21.9053 33.4233 21.6107C33.2588 21.0694 33.0053 20.5623 32.6696 20.0896C32.3338 19.6168 31.9159 19.2468 31.4157 18.9727C30.8949 18.6781 30.3057 18.5342 29.6548 18.5342C29.0038 18.5342 28.3529 18.6575 27.6951 18.8973C27.0374 19.1372 26.4001 19.4455 25.7972 19.8223C25.1874 20.1992 24.6118 20.6103 24.0568 21.0488C23.5018 21.4873 23.0016 21.9122 22.5494 22.3233C22.0972 22.7344 21.7203 23.0907 21.4051 23.3922C21.0899 23.6936 20.8707 23.8992 20.7474 24.002C20.6788 24.0705 20.6309 24.0157 20.6514 23.906C20.9666 22.8166 21.2475 21.8505 21.5011 21.0009C21.7546 20.1512 21.8779 19.6031 21.8779 19.3496C21.8779 19.1851 21.8025 19.0275 21.6449 18.8768C21.4874 18.7329 21.3161 18.6027 21.1242 18.4862C20.9392 18.3698 20.7131 18.2533 20.3911 18.1368C20.3157 18.1162 20.2403 18.1299 20.1512 18.1848C18.8357 19.0618 17.6983 19.747 16.7459 20.2403C15.7935 20.7336 14.9507 21.0968 14.2175 21.3366C13.9983 21.412 13.7859 21.4736 13.5872 21.5285C18.822 12.8746 28.3187 7.0916 39.172 7.0916C48.052 7.0916 56.0344 10.9698 61.509 17.1159C61.7146 16.6842 62.0777 16.2046 62.7424 15.8209C63.037 15.6564 63.3522 15.5125 63.6879 15.3892C63.2151 14.8959 62.7423 14.3888 62.2559 13.9023Z" fill="#0D4437"/>
<path d="M71.8211 37C71.8211 41.4126 70.9577 45.6882 69.2516 49.7171C67.6072 53.6089 65.2501 57.0965 62.2559 60.0976C59.2548 63.0987 55.7672 65.4558 51.8753 67.1002C47.8464 68.8063 43.564 69.6697 39.1583 69.6697C34.7457 69.6697 30.4701 68.8063 26.4413 67.1002C22.5494 65.4558 19.055 63.0987 16.0607 60.0976C14.2381 58.275 12.6553 56.2675 11.3192 54.1023C12.1072 53.6158 12.8951 53.1293 13.69 52.6565C18.9522 61.1939 28.3872 66.8947 39.1583 66.8947C55.6712 66.8947 69.0529 53.513 69.0529 37C69.0529 32.9506 68.2444 29.0793 66.785 25.5575C66.8329 25.4478 66.8809 25.3382 66.9288 25.2286C67.4153 24.1186 67.8607 23.0908 68.2718 22.1589C68.6281 22.851 68.957 23.5636 69.2585 24.283C70.9577 28.3119 71.8211 32.5943 71.8211 37Z" fill="#0D4437"/>
<path d="M43.1393 48.2164V47.0173H38.8843V52.4509H40.4191V50.5871H42.8104V49.4018H40.4191V48.2164H43.1393Z" fill="#22B573"/>
<path d="M46.5516 52.5605C46.1199 52.5605 45.7225 52.492 45.3525 52.3481C44.9825 52.2111 44.6604 52.0124 44.3932 51.752C44.126 51.4985 43.9136 51.197 43.7629 50.8544C43.6121 50.5118 43.5367 50.135 43.5367 49.7238C43.5367 49.3196 43.6121 48.9496 43.7629 48.607C43.9136 48.2644 44.126 47.9698 44.3932 47.7094C44.6604 47.4559 44.9825 47.2572 45.3456 47.1133C45.7156 46.9762 46.113 46.9009 46.5516 46.9009C46.9832 46.9009 47.3875 46.9694 47.7575 47.1133C48.1275 47.2503 48.4427 47.449 48.7099 47.7025C48.9771 47.9561 49.1895 48.2507 49.3403 48.5933C49.491 48.9359 49.5664 49.3127 49.5664 49.717C49.5664 50.1281 49.491 50.5118 49.3403 50.8544C49.1895 51.197 48.9771 51.4985 48.7099 51.752C48.4427 52.0055 48.1206 52.2042 47.7506 52.3413C47.3875 52.492 46.9832 52.5605 46.5516 52.5605ZM46.5516 51.2861C46.7571 51.2861 46.949 51.2518 47.1271 51.1764C47.3053 51.1011 47.4629 50.9983 47.593 50.8612C47.7232 50.7242 47.826 50.5598 47.9014 50.3748C47.9767 50.1829 48.011 49.9705 48.011 49.7375C48.011 49.4977 47.9767 49.2853 47.9014 49.1003C47.826 48.9085 47.7232 48.7509 47.593 48.6138C47.4629 48.4768 47.3053 48.374 47.1271 48.2987C46.949 48.2233 46.7571 48.189 46.5516 48.189C46.346 48.189 46.1541 48.2233 45.976 48.2987C45.7979 48.374 45.6403 48.4768 45.5032 48.6138C45.3662 48.7509 45.2634 48.9153 45.1949 49.1003C45.1195 49.2922 45.0853 49.5046 45.0853 49.7375C45.0853 49.9774 45.1195 50.1898 45.1949 50.3748C45.2703 50.5666 45.373 50.7242 45.5032 50.8612C45.6403 50.9983 45.791 51.1011 45.976 51.1764C46.1541 51.2518 46.346 51.2861 46.5516 51.2861Z" fill="#22B573"/>
<path d="M53.1155 52.5605C52.6839 52.5605 52.2864 52.492 51.9164 52.3481C51.5464 52.2111 51.2244 52.0124 50.9572 51.752C50.69 51.4985 50.4776 51.197 50.3268 50.8544C50.1761 50.5118 50.1007 50.135 50.1007 49.7238C50.1007 49.3196 50.1761 48.9496 50.3268 48.607C50.4776 48.2644 50.69 47.9698 50.9572 47.7094C51.2244 47.4559 51.5464 47.2572 51.9096 47.1133C52.2796 46.9762 52.677 46.9009 53.1155 46.9009C53.5472 46.9009 53.9514 46.9694 54.3214 47.1133C54.6914 47.2503 55.0066 47.449 55.2739 47.7025C55.5411 47.9561 55.7535 48.2507 55.9042 48.5933C56.055 48.9359 56.1303 49.3127 56.1303 49.717C56.1303 50.1281 56.055 50.5118 55.9042 50.8544C55.7535 51.197 55.5411 51.4985 55.2739 51.752C55.0066 52.0055 54.6846 52.2042 54.3146 52.3413C53.9514 52.492 53.554 52.5605 53.1155 52.5605ZM53.1155 51.2861C53.3211 51.2861 53.5129 51.2518 53.6911 51.1764C53.8692 51.1011 54.0268 50.9983 54.157 50.8612C54.2872 50.7242 54.39 50.5598 54.4653 50.3748C54.5407 50.1829 54.575 49.9705 54.575 49.7375C54.575 49.4977 54.5407 49.2853 54.4653 49.1003C54.39 48.9085 54.2872 48.7509 54.157 48.6138C54.0268 48.4768 53.8692 48.374 53.6911 48.2987C53.5129 48.2233 53.3211 48.189 53.1155 48.189C52.91 48.189 52.7181 48.2233 52.54 48.2987C52.3618 48.374 52.2042 48.4768 52.0672 48.6138C51.9302 48.7509 51.8274 48.9153 51.7589 49.1003C51.6835 49.2922 51.6492 49.5046 51.6492 49.7375C51.6492 49.9774 51.6835 50.1898 51.7589 50.3748C51.8342 50.5666 51.937 50.7242 52.0672 50.8612C52.2042 50.9983 52.355 51.1011 52.54 51.1764C52.7181 51.2518 52.91 51.2861 53.1155 51.2861Z" fill="#22B573"/>
<path d="M56.9526 52.4509V47.0173H59.5221C60.1182 47.0173 60.6458 47.127 61.098 47.3531C61.5502 47.5723 61.9065 47.8875 62.1669 48.2918C62.4204 48.696 62.5506 49.1757 62.5506 49.7307C62.5506 50.2925 62.4204 50.7721 62.1669 51.1764C61.9134 51.5807 61.5571 51.8959 61.098 52.122C60.6458 52.3412 60.1182 52.4577 59.5221 52.4577H56.9526V52.4509ZM58.4874 51.2244H59.4399C59.755 51.2244 60.0291 51.1627 60.2621 51.0462C60.495 50.9297 60.6732 50.7584 60.8034 50.5323C60.9336 50.3062 60.9952 50.039 60.9952 49.7375C60.9952 49.4223 60.9336 49.1551 60.8034 48.9359C60.6732 48.7166 60.495 48.5453 60.2621 48.4288C60.0291 48.3123 59.7619 48.2507 59.4399 48.2507H58.4874V51.2244Z" fill="#22B573"/>
<path d="M39.6106 22.2754L39.3365 21.323L41.6593 20.6583L41.3441 19.562L39.0213 20.2267L38.7746 19.3496L41.4126 18.6028L41.0837 17.4517L36.9932 18.6165L38.48 23.8376L42.6665 22.6454L42.3376 21.5011L39.6106 22.2754Z" fill="#22B573"/>
<path d="M47.2641 17.1433L44.3864 22.337L45.9486 22.4809L46.4693 21.46L48.7578 21.6655L49.0867 22.7618L50.6764 22.9057L48.7715 17.2735L47.2641 17.1433ZM47.0175 20.3774L47.8671 18.7124L48.4015 20.5076L47.0175 20.3774Z" fill="#22B573"/>
<path d="M54.1434 18.4451L53.6226 19.5414L55.13 20.2608L53.328 24.0636L54.7121 24.7214L56.521 20.9186L58.0215 21.6312L58.5423 20.528L54.1434 18.4451Z" fill="#22B573"/>
<path d="M24.6256 54.342L19.3428 57.1102L19.9731 57.6035L21.2818 56.8978L23.5567 58.6793L23.1935 60.1182L23.8376 60.6183L25.2354 54.8148L24.6256 54.342ZM21.878 56.5757L24.4406 55.1985L23.7211 58.0215L21.878 56.5757Z" fill="#0D4437"/>
<path d="M28.8668 59.2274C29.0587 59.0287 29.278 58.8711 29.5246 58.7683C29.7713 58.6656 30.0385 58.6107 30.3263 58.6039C30.6141 58.6039 30.9018 58.6587 31.1896 58.7683C31.4774 58.878 31.7241 59.0219 31.9296 59.2137C32.1352 59.3987 32.3065 59.6385 32.4367 59.9194L33.0602 59.6385C32.93 59.2891 32.7176 58.9876 32.4367 58.7272C32.1489 58.4669 31.8063 58.2681 31.4089 58.1106C31.0115 57.9598 30.6278 57.8844 30.2441 57.8913C29.8672 57.8913 29.5109 57.9667 29.1752 58.1106C28.8394 58.2544 28.5448 58.4531 28.2913 58.7204C28.0378 58.9807 27.8391 59.3028 27.6952 59.6796C27.5513 60.0565 27.4896 60.4265 27.5033 60.7965C27.517 61.1596 27.6061 61.5091 27.7568 61.838C27.9076 62.1669 28.1268 62.4546 28.4078 62.7081C28.6887 62.9617 29.0244 63.1604 29.415 63.3111C29.7713 63.4481 30.1413 63.5235 30.5181 63.5441C30.895 63.5646 31.2513 63.5167 31.5802 63.3933L32.3339 61.4131L31.635 61.1459L31.0115 62.7972C30.847 62.8315 30.6826 62.852 30.525 62.8452C30.2441 62.8383 29.97 62.7767 29.6959 62.6739C29.4081 62.5643 29.1546 62.4135 28.9491 62.2217C28.7367 62.0298 28.5791 61.8106 28.4626 61.5707C28.3461 61.3241 28.2844 61.0637 28.2776 60.7896C28.2707 60.5156 28.3187 60.2346 28.4215 59.9606C28.5311 59.6659 28.675 59.4261 28.8668 59.2274Z" fill="#0D4437"/>
<path d="M39.8366 65.0993L40.652 65.1473L38.5005 59.5768L37.7331 59.5356L34.9581 64.8184L35.7598 64.8664L36.4313 63.544L39.3159 63.7084L39.8366 65.0993ZM36.7396 62.9342L38.062 60.3442L39.0761 63.0712L36.7396 62.9342Z" fill="#0D4437"/>
<path d="M44.2013 64.6609L43.2626 59.3096L44.03 59.1726L44.9687 64.5239L44.2013 64.6609Z" fill="#0D4437"/>
<path d="M53.5541 61.5433L51.3341 56.5825L50.6284 56.9046L52.2797 60.5977L47.6547 58.2338L47.0723 58.4942L49.2923 63.4549L49.998 63.1397L48.3467 59.4397L52.9786 61.8036L53.5541 61.5433Z" fill="#0D4437"/>
<path d="M12.8541 51.4436C12.8541 51.4436 11.9291 45.9141 6.37905 44.6671L2.18572 43.7832C2.18572 43.7832 1.9459 47.4352 4.69349 50.5391C7.44109 53.643 11.3192 54.1021 11.3192 54.1021C11.3192 54.1021 10.2641 50.1486 6.84498 47.2228C6.83812 47.216 9.77757 47.7436 12.8541 51.4436Z" fill="#22B573"/>
<path d="M17.342 54.4584C17.342 54.4584 20.8981 51.6697 17.3351 46.2156C17.3351 46.2156 13.5461 49.5661 15.0946 54.7187C15.0946 54.7187 16.972 52.6632 17.342 49.7374C17.3351 49.7374 18.4589 51.9711 17.342 54.4584Z" fill="#22B573"/>
<path d="M13.8818 57.7062C13.8818 57.7062 12.2237 56.1645 9.26367 57.4527C9.26367 57.4527 10.9698 60.5428 14.149 58.7888C14.149 58.7888 13.2583 58.0693 11.7098 57.7062C11.7029 57.7062 12.6964 57.4595 13.8818 57.7062Z" fill="#22B573"/>
</svg>
